<svg id="svg" version="1.1" xmlns="http://www.w3.org/2000/svg" xmlns:xlink="http://www.w3.org/1999/xlink" width="400" height="400" viewBox="0, 0, 400,400"><g id="svgg"><path id="path0" d="M96.653 158.280 C 96.499 158.435,95.389 158.705,94.186 158.880 C 91.277 159.306,88.042 159.884,86.755 160.209 L 85.709 160.472 85.869 172.536 C 85.957 179.171,86.203 188.607,86.415 193.505 C 86.909 204.936,86.908 220.521,86.413 226.179 C 86.200 228.610,85.958 233.005,85.876 235.944 L 85.727 241.288 87.764 241.053 C 88.884 240.923,90.700 240.649,91.800 240.443 C 92.900 240.237,94.880 239.889,96.200 239.670 C 99.062 239.195,100.068 238.834,99.789 238.382 C 99.676 238.199,99.403 233.762,99.183 228.524 C 98.963 223.286,98.673 217.695,98.538 216.100 C 98.198 212.082,98.872 212.257,101.998 216.997 C 103.375 219.085,104.929 221.290,105.450 221.897 C 105.972 222.504,106.399 223.225,106.400 223.500 C 106.400 223.775,106.550 224.000,106.732 224.000 C 106.915 224.000,107.320 224.495,107.632 225.100 C 107.944 225.705,108.300 226.290,108.424 226.400 C 108.548 226.510,111.056 230.162,113.998 234.515 C 117.300 239.401,119.541 242.355,119.854 242.235 C 122.546 241.202,131.174 234.699,130.712 234.051 C 129.949 232.979,127.512 230.014,126.600 229.046 C 126.160 228.579,124.992 227.208,124.005 225.999 C 123.019 224.789,122.109 223.710,121.985 223.600 C 121.861 223.490,120.084 221.420,118.037 219.000 C 115.989 216.580,113.928 214.145,113.457 213.590 C 111.107 210.819,110.145 212.212,121.959 201.279 C 124.026 199.365,126.759 196.787,128.032 195.549 L 130.346 193.297 129.467 192.549 C 128.984 192.137,128.096 191.545,127.494 191.232 C 126.892 190.920,126.400 190.515,126.400 190.332 C 126.400 190.150,126.210 190.000,125.978 190.000 C 125.746 190.000,124.479 189.269,123.162 188.374 L 120.769 186.749 119.684 187.911 C 118.830 188.826,113.109 195.052,111.000 197.362 C 110.780 197.603,108.893 199.690,106.807 202.000 C 97.963 211.793,98.178 211.713,98.561 205.100 C 98.717 202.405,99.007 193.540,99.206 185.400 C 99.405 177.260,99.693 167.765,99.846 164.300 L 100.124 158.000 98.529 158.000 C 97.651 158.000,96.807 158.126,96.653 158.280 M364.653 158.280 C 364.499 158.435,363.434 158.697,362.286 158.862 C 358.946 159.345,357.515 159.609,355.646 160.086 L 353.893 160.534 354.201 168.367 C 354.805 183.702,354.720 187.814,353.800 187.707 C 342.673 186.414,332.152 191.215,327.990 199.485 C 327.681 200.098,327.107 201.078,326.714 201.662 C 326.321 202.246,326.000 203.011,326.000 203.362 C 326.000 203.713,325.859 204.000,325.687 204.000 C 325.515 204.000,325.140 204.855,324.854 205.900 C 324.567 206.945,324.180 208.160,323.994 208.600 C 322.953 211.053,322.442 222.419,323.211 226.000 C 324.607 232.500,328.562 237.940,333.600 240.289 C 336.255 241.528,341.476 241.804,343.437 240.811 C 346.311 239.355,349.308 237.010,351.615 234.414 C 354.475 231.197,355.068 230.991,355.400 233.100 C 355.816 235.746,356.485 237.973,357.683 240.700 C 358.464 242.476,358.806 242.795,359.534 242.429 C 359.900 242.244,360.650 241.915,361.200 241.697 C 361.750 241.480,363.010 240.931,364.000 240.478 C 364.990 240.025,366.486 239.422,367.325 239.138 C 369.608 238.365,369.646 238.168,368.377 233.797 C 366.120 226.025,366.099 224.301,367.615 173.255 C 367.827 166.134,368.000 159.789,368.000 159.155 C 368.000 158.011,365.560 157.373,364.653 158.280 M304.615 162.023 C 295.961 166.339,297.550 178.273,306.765 178.171 C 312.145 178.111,315.676 173.533,315.044 167.437 C 314.505 162.242,309.444 159.614,304.615 162.023 M222.000 166.026 C 208.559 167.166,196.230 177.003,191.203 190.600 C 191.040 191.040,190.723 191.850,190.499 192.400 C 187.763 199.107,187.381 212.034,189.665 220.600 C 191.698 228.226,200.847 239.600,204.948 239.600 C 205.281 239.600,205.643 239.746,205.754 239.925 C 205.997 240.320,210.579 241.770,213.600 242.408 C 218.069 243.353,229.111 242.425,237.000 240.441 C 237.880 240.220,239.410 239.862,240.400 239.646 C 241.390 239.430,242.895 239.016,243.744 238.727 L 245.289 238.200 245.414 222.000 C 245.483 213.090,245.598 204.990,245.670 204.000 L 245.800 202.200 233.317 202.094 C 218.894 201.972,220.161 201.563,219.790 206.462 C 219.668 208.078,219.483 210.071,219.381 210.891 L 219.194 212.381 226.097 212.491 L 233.000 212.600 233.000 221.400 L 233.000 230.200 230.200 230.904 C 214.175 234.936,204.265 226.390,202.364 206.899 C 200.318 185.908,213.832 173.934,231.800 180.817 C 237.210 182.890,239.247 183.752,239.429 184.047 C 239.795 184.640,241.200 184.439,241.200 183.795 C 241.200 183.462,241.357 182.877,241.550 182.495 C 242.933 179.749,243.600 178.273,243.600 177.958 C 243.600 177.756,243.978 176.738,244.440 175.696 C 244.902 174.653,245.463 173.350,245.687 172.800 C 245.910 172.250,246.255 171.484,246.452 171.097 C 247.816 168.423,232.120 165.168,222.000 166.026 M34.328 167.296 C 34.240 167.573,34.305 172.930,34.473 179.200 C 35.322 211.043,35.405 216.228,35.151 221.400 C 35.000 224.480,34.741 230.285,34.576 234.300 L 34.277 241.600 53.715 241.600 C 67.302 241.600,73.234 241.469,73.422 241.164 C 73.570 240.925,73.832 238.990,74.004 236.864 C 74.176 234.739,74.444 232.507,74.600 231.906 L 74.884 230.811 61.749 230.706 L 48.613 230.600 48.312 229.000 C 47.985 227.261,47.375 209.253,47.639 209.117 C 47.727 209.071,52.480 208.936,58.200 208.817 L 68.600 208.600 68.903 206.000 C 69.069 204.570,69.349 202.188,69.525 200.706 L 69.844 198.013 59.022 197.906 L 48.200 197.800 48.347 188.200 C 48.428 182.920,48.574 178.465,48.671 178.300 C 48.768 178.135,54.294 178.000,60.952 178.000 L 73.056 178.000 73.521 174.900 C 73.778 173.195,74.035 170.720,74.094 169.400 L 74.200 167.000 54.344 166.896 C 38.660 166.814,34.455 166.898,34.328 167.296 M155.107 186.617 C 136.636 191.667,128.265 223.120,141.731 236.876 C 145.853 241.087,150.530 242.965,156.200 242.684 C 160.993 242.446,161.795 242.251,165.800 240.354 C 168.933 238.869,176.400 231.032,176.400 229.228 C 176.400 228.993,176.580 228.800,176.800 228.800 C 177.020 228.800,177.200 228.528,177.200 228.195 C 177.200 227.862,177.359 227.277,177.553 226.895 C 179.419 223.227,180.383 218.984,181.039 211.546 C 181.354 207.967,180.522 202.327,179.188 199.000 C 178.043 196.146,177.773 195.600,177.502 195.600 C 177.336 195.600,177.200 195.329,177.200 194.997 C 177.200 193.957,172.321 189.402,170.000 188.274 C 165.449 186.065,159.533 185.407,155.107 186.617 M270.331 187.002 C 270.205 187.129,269.133 187.413,267.951 187.634 C 266.768 187.854,264.990 188.217,264.000 188.440 C 263.010 188.662,261.594 188.947,260.854 189.071 L 259.508 189.298 259.783 191.349 C 261.969 207.628,262.220 223.100,260.556 239.026 L 260.302 241.453 262.451 241.142 C 263.633 240.971,265.500 240.660,266.600 240.450 C 267.700 240.240,269.751 239.883,271.158 239.656 C 272.565 239.430,273.851 239.099,274.017 238.922 C 274.288 238.632,274.191 235.265,273.346 215.576 L 273.096 209.751 274.788 208.303 C 278.173 205.406,283.315 203.675,288.700 203.621 C 289.855 203.609,290.815 203.555,290.832 203.500 C 290.850 203.445,291.021 200.880,291.211 197.800 C 291.401 194.720,291.682 191.165,291.835 189.900 L 292.112 187.600 290.697 187.600 C 287.586 187.600,282.785 191.035,278.399 196.400 C 277.409 197.610,276.465 198.660,276.300 198.733 C 276.135 198.807,276.000 199.045,276.000 199.262 C 276.000 199.479,275.734 199.923,275.409 200.248 C 275.084 200.573,274.657 201.126,274.461 201.476 C 273.708 202.821,273.334 201.435,272.854 195.523 C 272.206 187.544,271.654 185.680,270.331 187.002 M311.907 187.027 C 311.767 187.167,310.606 187.436,309.326 187.624 C 306.493 188.043,303.083 188.667,301.200 189.112 L 299.800 189.443 299.889 191.821 C 299.937 193.130,300.189 199.070,300.448 205.023 C 300.903 215.492,300.791 220.803,299.758 237.638 L 299.523 241.477 301.861 241.106 C 303.148 240.903,305.010 240.578,306.000 240.384 C 306.990 240.190,308.790 239.861,310.000 239.653 C 313.699 239.018,313.434 239.674,313.134 231.896 C 312.366 212.000,312.311 208.249,312.733 204.117 C 313.831 193.343,313.451 185.482,311.907 187.027 M162.124 199.836 C 172.117 203.241,171.864 227.221,161.800 230.595 C 153.407 233.408,147.246 226.905,146.896 214.865 C 146.550 202.919,152.869 196.682,162.124 199.836 M349.030 199.809 C 351.434 200.144,353.715 200.516,354.100 200.636 C 354.746 200.837,354.800 201.779,354.800 212.931 L 354.800 225.008 353.900 225.574 C 349.754 228.183,348.698 228.529,344.790 228.565 L 340.979 228.600 339.061 227.029 C 335.721 224.292,334.400 220.543,334.400 213.800 C 334.400 204.653,337.582 200.030,344.430 199.227 C 344.557 199.212,346.627 199.474,349.030 199.809 " stroke="none" fill="#fafbfc" fill-rule="evenodd"></path><path id="path1" d="M0.000 200.000 L 0.000 400.000 200.000 400.000 L 400.000 400.000 400.000 200.000 L 400.000 0.000 200.000 0.000 L 0.000 0.000 0.000 200.000 M100.248 157.106 C 100.575 157.321,100.604 161.070,100.356 171.000 C 100.169 178.480,99.909 190.000,99.778 196.600 L 99.540 208.600 101.046 207.000 C 101.874 206.120,104.182 203.624,106.176 201.452 C 108.169 199.281,110.430 196.834,111.200 196.014 C 111.970 195.194,114.040 192.928,115.800 190.979 C 119.922 186.413,120.332 186.000,120.739 186.000 C 121.265 186.000,130.937 192.610,131.092 193.075 C 131.214 193.442,130.327 194.368,125.416 199.000 C 124.717 199.660,122.627 201.641,120.772 203.403 C 118.917 205.165,116.365 207.540,115.100 208.683 C 112.351 211.164,112.337 211.288,114.520 213.655 C 115.461 214.675,117.664 217.266,119.415 219.412 C 121.167 221.558,122.960 223.694,123.400 224.158 C 123.840 224.623,125.007 225.992,125.993 227.201 C 126.979 228.411,128.074 229.670,128.427 230.000 C 129.412 230.921,132.000 234.416,132.000 234.824 C 132.000 235.301,120.183 243.200,119.470 243.200 C 119.168 243.200,116.338 239.375,113.182 234.700 C 110.025 230.025,107.298 226.140,107.121 226.067 C 106.944 225.993,106.800 225.723,106.799 225.467 C 106.799 225.210,106.259 224.370,105.600 223.600 C 104.941 222.830,104.401 221.990,104.401 221.733 C 104.400 221.477,104.247 221.207,104.061 221.133 C 103.874 221.060,102.839 219.665,101.761 218.034 L 99.800 215.069 99.673 218.234 C 99.603 219.975,99.738 223.946,99.973 227.059 C 100.838 238.522,100.668 239.776,98.200 240.136 C 97.320 240.264,95.520 240.563,94.200 240.800 C 92.880 241.037,91.080 241.324,90.200 241.438 C 89.320 241.552,88.222 241.831,87.760 242.058 C 84.725 243.550,84.709 243.433,85.496 225.400 C 85.933 215.397,85.720 193.581,84.948 169.041 C 84.634 159.085,84.600 159.200,87.853 159.200 C 88.788 159.200,89.664 159.020,89.800 158.800 C 89.936 158.580,90.926 158.400,92.000 158.400 C 93.074 158.400,94.064 158.220,94.200 158.000 C 94.336 157.780,95.202 157.597,96.124 157.594 C 97.046 157.591,98.070 157.413,98.400 157.200 C 99.117 156.736,99.644 156.710,100.248 157.106 M368.472 170.200 C 368.401 177.460,368.177 187.180,367.974 191.800 C 367.450 203.720,367.495 226.742,368.048 229.094 C 368.294 230.142,368.924 232.466,369.448 234.259 C 370.585 238.151,370.617 238.756,369.700 239.049 C 369.013 239.268,368.295 239.548,366.100 240.454 C 365.495 240.703,364.550 241.084,364.000 241.300 C 363.450 241.516,362.687 241.852,362.305 242.047 C 361.923 242.241,361.338 242.400,361.005 242.400 C 360.672 242.400,360.400 242.580,360.400 242.800 C 360.400 243.020,359.770 243.200,359.000 243.200 C 357.867 243.200,357.600 243.048,357.600 242.400 C 357.600 241.960,357.420 241.600,357.200 241.600 C 356.980 241.600,356.800 241.251,356.800 240.824 C 356.800 240.397,356.620 239.936,356.400 239.800 C 356.180 239.664,356.000 239.124,356.000 238.600 C 356.000 238.076,355.820 237.536,355.600 237.400 C 355.380 237.264,355.200 236.634,355.200 236.000 C 355.200 235.366,355.020 234.736,354.800 234.600 C 354.580 234.464,354.400 233.893,354.400 233.330 C 354.400 232.411,354.212 232.536,352.541 234.567 C 350.717 236.781,346.436 240.290,344.420 241.222 C 343.859 241.481,343.087 241.852,342.705 242.047 C 341.752 242.532,336.505 242.494,336.200 242.000 C 336.064 241.780,335.511 241.600,334.971 241.600 C 333.974 241.600,332.672 241.006,331.687 240.100 C 331.388 239.825,331.021 239.600,330.871 239.600 C 329.178 239.600,323.200 231.014,323.200 228.583 C 323.200 228.068,323.046 227.552,322.857 227.435 C 321.182 226.400,321.787 211.279,323.684 206.800 C 323.917 206.250,324.240 205.440,324.403 205.000 C 325.011 203.356,326.611 200.195,326.900 200.067 C 327.065 199.993,327.203 199.723,327.207 199.467 C 327.234 197.728,336.583 188.800,338.377 188.800 C 338.616 188.800,339.123 188.641,339.505 188.447 C 343.441 186.444,347.051 186.068,352.961 187.044 L 354.522 187.302 354.227 184.951 C 354.064 183.658,353.772 179.090,353.578 174.800 C 353.384 170.510,353.107 165.468,352.962 163.595 C 352.628 159.272,352.286 159.517,360.000 158.549 C 360.990 158.424,361.971 158.160,362.180 157.961 C 362.389 157.763,363.413 157.600,364.456 157.600 C 365.499 157.600,366.470 157.410,366.614 157.177 C 366.758 156.945,367.264 156.810,367.738 156.877 L 368.600 157.000 368.472 170.200 M312.330 161.470 C 315.705 162.982,317.164 169.041,315.154 173.200 C 311.702 180.345,302.527 181.356,299.247 174.953 C 295.010 166.682,303.781 157.642,312.330 161.470 M236.865 165.997 C 241.222 166.867,242.235 167.174,245.293 168.549 C 247.302 169.452,247.732 170.553,246.800 172.405 C 246.580 172.842,246.220 173.558,246.000 173.995 C 245.780 174.432,245.600 175.062,245.600 175.395 C 245.600 175.728,245.420 176.000,245.200 176.000 C 244.980 176.000,244.800 176.272,244.800 176.605 C 244.800 176.938,244.641 177.523,244.447 177.905 C 244.252 178.287,243.871 179.140,243.600 179.800 C 243.329 180.460,242.948 181.313,242.753 181.695 C 242.559 182.077,242.400 182.662,242.400 182.995 C 242.400 183.328,242.220 183.600,242.000 183.600 C 241.780 183.600,241.600 183.949,241.600 184.376 C 241.600 185.697,240.832 185.727,238.472 184.501 C 237.222 183.851,235.120 182.915,233.800 182.421 C 232.480 181.926,231.040 181.373,230.600 181.191 C 223.907 178.423,213.596 180.176,209.200 184.830 C 206.812 187.357,206.027 188.620,204.365 192.600 C 202.792 196.366,202.841 209.191,204.450 215.000 C 205.190 217.671,206.495 220.939,207.268 222.062 C 207.671 222.646,208.000 223.236,208.000 223.372 C 208.000 223.671,210.297 226.278,211.345 227.167 C 211.754 227.515,212.294 227.981,212.545 228.202 C 216.050 231.299,222.535 231.840,231.300 229.767 L 232.400 229.507 232.400 221.553 L 232.400 213.600 225.849 213.600 C 217.791 213.600,218.071 213.788,218.731 208.831 C 218.989 206.894,219.200 204.587,219.200 203.704 C 219.200 201.133,218.939 201.178,233.248 201.294 L 246.200 201.400 246.111 207.200 C 246.010 213.807,246.017 226.139,246.126 233.783 L 246.200 238.966 244.800 239.315 C 244.030 239.507,242.813 239.759,242.096 239.876 C 241.379 239.993,240.694 240.249,240.573 240.444 C 240.452 240.640,239.769 240.800,239.056 240.800 C 238.343 240.800,237.589 240.962,237.380 241.159 C 237.008 241.511,235.406 241.805,231.400 242.257 C 230.300 242.381,229.180 242.662,228.911 242.881 C 228.147 243.504,212.560 243.520,211.939 242.899 C 211.664 242.624,210.857 242.400,210.144 242.400 C 209.431 242.400,208.736 242.220,208.600 242.000 C 208.464 241.780,208.091 241.600,207.772 241.600 C 204.882 241.600,196.922 235.565,193.651 230.894 C 192.394 229.098,189.600 223.612,189.600 222.939 C 189.600 222.637,189.438 222.077,189.239 221.695 C 187.500 218.349,186.767 205.870,187.929 199.400 C 188.206 197.860,188.535 196.013,188.660 195.296 C 188.786 194.579,189.049 193.894,189.244 193.773 C 189.440 193.652,189.600 193.201,189.600 192.771 C 189.600 192.341,189.759 191.677,189.953 191.295 C 190.296 190.622,190.541 190.050,191.664 187.300 C 191.956 186.585,192.298 186.000,192.423 186.000 C 192.548 186.000,192.898 185.370,193.200 184.600 C 193.502 183.830,193.896 183.200,194.075 183.200 C 194.254 183.200,194.400 182.930,194.400 182.600 C 194.400 182.270,194.541 182.000,194.714 182.000 C 194.886 182.000,195.342 181.468,195.726 180.817 C 196.954 178.738,201.904 173.561,204.091 172.067 C 204.591 171.726,205.090 171.322,205.200 171.170 C 205.506 170.746,209.940 168.343,212.400 167.268 C 218.121 164.767,228.111 164.248,236.865 165.997 M74.755 166.364 C 75.180 166.633,75.241 167.218,75.015 168.858 C 74.853 170.036,74.603 172.620,74.460 174.600 L 74.200 178.200 61.983 178.306 L 49.766 178.411 49.277 185.706 C 49.008 189.718,48.790 193.945,48.794 195.100 L 48.800 197.200 59.557 197.200 C 67.800 197.200,70.357 197.317,70.495 197.700 C 70.678 198.209,69.720 208.187,69.400 209.100 C 69.266 209.483,66.793 209.600,58.868 209.600 L 48.510 209.600 48.248 211.827 C 48.104 213.052,48.102 214.241,48.242 214.468 C 48.383 214.696,48.611 218.239,48.749 222.341 L 49.000 229.800 62.000 230.000 L 75.000 230.200 74.939 233.200 C 74.906 234.850,74.726 237.550,74.539 239.200 L 74.200 242.200 54.024 242.304 C 42.075 242.365,33.697 242.257,33.478 242.038 C 33.253 241.813,33.287 238.661,33.567 233.935 C 33.820 229.681,34.162 223.836,34.329 220.946 C 34.623 215.856,34.492 209.123,33.543 180.706 C 33.184 169.932,33.194 167.089,33.595 166.606 C 34.169 165.915,73.679 165.682,74.755 166.364 M167.125 186.071 C 174.057 188.847,177.463 192.370,180.400 199.800 C 181.908 203.614,181.877 219.774,180.359 221.380 C 180.162 221.589,180.000 222.176,180.000 222.685 C 180.000 223.194,179.841 223.923,179.647 224.305 C 179.452 224.687,179.071 225.540,178.800 226.200 C 177.998 228.152,176.428 231.031,175.093 233.000 C 172.513 236.804,165.209 242.400,162.824 242.400 C 162.459 242.400,161.959 242.601,161.713 242.847 C 161.435 243.125,159.309 243.310,156.075 243.337 C 151.059 243.379,150.532 243.289,147.905 241.953 C 147.523 241.759,146.938 241.600,146.605 241.600 C 146.272 241.600,146.000 241.420,146.000 241.200 C 146.000 240.980,145.721 240.800,145.379 240.800 C 143.589 240.800,137.527 233.436,135.995 229.400 C 133.713 223.390,133.718 212.300,136.005 206.600 C 136.181 206.160,136.593 205.080,136.920 204.200 C 138.025 201.226,138.987 199.200,139.294 199.200 C 139.462 199.200,139.600 198.964,139.600 198.675 C 139.600 198.387,139.920 197.802,140.311 197.375 C 140.702 196.949,141.461 195.970,141.998 195.200 C 143.329 193.292,147.971 188.800,148.613 188.800 C 148.899 188.800,149.193 188.665,149.267 188.500 C 149.385 188.234,151.964 186.907,154.200 185.960 C 156.103 185.155,165.029 185.231,167.125 186.071 M272.984 188.900 C 273.135 190.495,273.380 193.841,273.529 196.335 L 273.800 200.870 274.606 199.935 C 275.049 199.421,275.844 198.370,276.374 197.600 C 278.082 195.115,284.540 189.028,286.400 188.151 C 289.350 186.758,290.384 186.400,291.449 186.400 L 292.460 186.400 292.234 191.900 C 291.680 205.359,292.200 204.142,286.800 204.605 C 282.998 204.931,279.158 206.115,276.927 207.650 C 273.934 209.710,274.011 209.289,274.486 221.000 C 274.719 226.720,274.929 233.290,274.954 235.600 L 275.000 239.800 273.400 239.911 C 272.520 239.972,271.440 240.186,271.000 240.388 C 270.253 240.730,269.459 240.866,264.800 241.451 C 263.810 241.576,262.829 241.840,262.620 242.039 C 262.411 242.237,261.714 242.400,261.071 242.400 L 259.902 242.400 260.205 234.900 C 260.664 223.498,260.600 205.133,260.084 200.200 C 259.429 193.948,258.973 190.697,258.649 189.971 C 258.323 189.239,259.686 188.465,262.200 187.958 C 263.080 187.780,264.790 187.429,266.000 187.178 C 269.593 186.432,271.360 186.103,272.055 186.050 C 272.583 186.010,272.763 186.561,272.984 188.900 M314.157 190.600 C 314.134 193.020,313.935 199.140,313.717 204.200 C 313.349 212.708,313.559 224.903,314.248 235.100 C 314.538 239.389,314.261 240.000,312.031 240.000 C 311.222 240.000,310.389 240.163,310.180 240.361 C 309.971 240.560,308.990 240.821,308.000 240.942 C 307.010 241.063,305.120 241.359,303.800 241.599 C 302.480 241.839,300.860 242.072,300.200 242.117 L 299.000 242.200 299.010 238.800 C 299.016 236.930,299.255 230.810,299.542 225.200 C 300.042 215.422,299.846 204.531,298.954 192.538 C 298.677 188.807,298.891 188.522,302.400 187.955 C 303.390 187.795,305.280 187.460,306.600 187.212 C 315.042 185.623,314.209 185.250,314.157 190.600 M155.400 200.243 C 144.664 202.929,144.664 226.095,155.401 229.831 C 163.548 232.667,168.742 226.295,168.313 213.990 C 167.946 203.430,163.134 198.308,155.400 200.243 M341.186 200.911 C 336.595 203.127,335.398 205.796,335.405 213.800 C 335.415 224.921,340.722 230.589,348.281 227.550 C 350.507 226.655,351.426 226.198,352.906 225.250 L 354.412 224.286 354.306 212.843 L 354.200 201.400 352.400 201.081 C 349.071 200.490,342.270 200.387,341.186 200.911 " stroke="none" fill="#249cec" fill-rule="evenodd"></path><path id="path2" d="M99.482 157.482 C 99.764 157.683,100.024 159.143,100.110 161.012 L 100.257 164.200 100.228 160.832 C 100.206 158.194,100.070 157.429,99.600 157.302 C 99.175 157.187,99.141 157.239,99.482 157.482 M368.148 164.800 C 368.148 167.110,368.214 168.055,368.295 166.900 C 368.376 165.745,368.376 163.855,368.295 162.700 C 368.214 161.545,368.148 162.490,368.148 164.800 M353.314 163.400 C 353.317 164.500,353.395 164.903,353.487 164.295 C 353.579 163.686,353.577 162.786,353.482 162.295 C 353.387 161.803,353.311 162.300,353.314 163.400 M301.178 163.900 L 299.800 165.400 301.300 164.022 C 302.696 162.738,302.984 162.400,302.678 162.400 C 302.612 162.400,301.937 163.075,301.178 163.900 M223.900 165.495 C 225.055 165.576,226.945 165.576,228.100 165.495 C 229.255 165.414,228.310 165.348,226.000 165.348 C 223.690 165.348,222.745 165.414,223.900 165.495 M85.351 170.800 C 85.351 173.330,85.416 174.365,85.496 173.100 C 85.575 171.835,85.575 169.765,85.496 168.500 C 85.416 167.235,85.351 168.270,85.351 170.800 M353.728 169.200 C 353.728 170.630,353.801 171.215,353.889 170.500 C 353.978 169.785,353.978 168.615,353.889 167.900 C 353.801 167.185,353.728 167.770,353.728 169.200 M298.649 167.815 C 298.512 168.173,298.415 168.766,298.434 169.133 C 298.453 169.500,298.627 169.269,298.821 168.620 C 299.198 167.358,299.065 166.733,298.649 167.815 M33.746 173.800 C 33.747 176.000,33.814 176.849,33.895 175.687 C 33.976 174.524,33.976 172.724,33.893 171.687 C 33.811 170.649,33.745 171.600,33.746 173.800 M74.093 174.000 C 74.093 174.770,74.175 175.085,74.276 174.700 C 74.376 174.315,74.376 173.685,74.276 173.300 C 74.175 172.915,74.093 173.230,74.093 174.000 M311.800 176.668 C 310.920 177.457,310.560 177.916,311.000 177.688 C 311.741 177.304,313.951 175.179,313.570 175.217 C 313.476 175.226,312.680 175.879,311.800 176.668 M99.742 180.600 C 99.741 182.580,99.808 183.440,99.892 182.512 C 99.976 181.584,99.977 179.964,99.895 178.912 C 99.812 177.860,99.743 178.620,99.742 180.600 M354.114 179.400 C 354.117 180.500,354.195 180.903,354.287 180.295 C 354.379 179.686,354.377 178.786,354.282 178.295 C 354.187 177.803,354.111 178.300,354.114 179.400 M305.700 179.076 C 306.085 179.176,306.715 179.176,307.100 179.076 C 307.485 178.975,307.170 178.893,306.400 178.893 C 305.630 178.893,305.315 178.975,305.700 179.076 M48.931 181.800 C 48.933 183.340,49.005 183.921,49.092 183.091 C 49.179 182.261,49.177 181.001,49.089 180.291 C 49.000 179.581,48.929 180.260,48.931 181.800 M220.691 179.489 C 221.401 179.577,222.661 179.579,223.491 179.492 C 224.321 179.405,223.740 179.333,222.200 179.331 C 220.660 179.329,219.981 179.400,220.691 179.489 M34.146 183.400 C 34.147 185.600,34.214 186.449,34.295 185.287 C 34.376 184.124,34.376 182.324,34.293 181.287 C 34.211 180.249,34.145 181.200,34.146 183.400 M85.754 184.400 C 85.754 187.150,85.818 188.275,85.896 186.900 C 85.974 185.525,85.974 183.275,85.896 181.900 C 85.818 180.525,85.754 181.650,85.754 184.400 M367.748 185.200 C 367.748 187.510,367.814 188.455,367.895 187.300 C 367.976 186.145,367.976 184.255,367.895 183.100 C 367.814 181.945,367.748 182.890,367.748 185.200 M354.520 185.200 C 354.520 186.410,354.595 186.905,354.687 186.300 C 354.778 185.695,354.778 184.705,354.687 184.100 C 354.595 183.495,354.520 183.990,354.520 185.200 M271.476 186.686 C 272.027 186.788,272.416 187.212,272.524 187.829 C 272.675 188.683,272.691 188.667,272.649 187.705 C 272.610 186.817,272.403 186.592,271.600 186.561 C 270.780 186.530,270.758 186.552,271.476 186.686 M312.100 186.676 C 312.485 186.776,313.115 186.776,313.500 186.676 C 313.885 186.575,313.570 186.493,312.800 186.493 C 312.030 186.493,311.715 186.575,312.100 186.676 M48.540 190.000 C 48.540 191.870,48.609 192.635,48.693 191.700 C 48.777 190.765,48.777 189.235,48.693 188.300 C 48.609 187.365,48.540 188.130,48.540 190.000 M99.350 191.000 C 99.351 193.420,99.416 194.358,99.496 193.085 C 99.576 191.812,99.575 189.832,99.494 188.685 C 99.414 187.538,99.349 188.580,99.350 191.000 M117.375 189.700 L 116.200 191.000 117.500 189.825 C 118.712 188.730,118.984 188.400,118.675 188.400 C 118.606 188.400,118.021 188.985,117.375 189.700 M292.124 190.600 C 292.126 191.920,292.201 192.412,292.290 191.693 C 292.379 190.974,292.377 189.894,292.286 189.293 C 292.195 188.692,292.122 189.280,292.124 190.600 M144.800 192.200 C 143.828 193.190,143.123 194.000,143.233 194.000 C 143.343 194.000,144.228 193.190,145.200 192.200 C 146.172 191.210,146.877 190.400,146.767 190.400 C 146.657 190.400,145.772 191.210,144.800 192.200 M299.331 193.800 C 299.333 195.340,299.405 195.921,299.492 195.091 C 299.579 194.261,299.577 193.001,299.489 192.291 C 299.400 191.581,299.329 192.260,299.331 193.800 M313.709 192.800 C 313.709 193.790,313.787 194.195,313.882 193.700 C 313.978 193.205,313.978 192.395,313.882 191.900 C 313.787 191.405,313.709 191.810,313.709 192.800 M367.348 195.600 C 367.348 197.910,367.414 198.855,367.495 197.700 C 367.576 196.545,367.576 194.655,367.495 193.500 C 367.414 192.345,367.348 193.290,367.348 195.600 M112.181 195.300 L 110.600 197.000 112.300 195.419 C 113.881 193.948,114.184 193.600,113.881 193.600 C 113.816 193.600,113.051 194.365,112.181 195.300 M291.693 195.200 C 291.693 195.970,291.775 196.285,291.876 195.900 C 291.976 195.515,291.976 194.885,291.876 194.500 C 291.775 194.115,291.693 194.430,291.693 195.200 M273.324 196.600 C 273.326 197.920,273.401 198.412,273.490 197.693 C 273.579 196.974,273.577 195.894,273.486 195.293 C 273.395 194.692,273.322 195.280,273.324 196.600 M125.785 198.100 L 123.800 200.200 125.900 198.215 C 127.055 197.123,128.000 196.178,128.000 196.115 C 128.000 195.817,127.629 196.149,125.785 198.100 M260.101 198.600 C 260.105 199.480,260.187 199.793,260.283 199.295 C 260.379 198.798,260.375 198.078,260.275 197.695 C 260.175 197.313,260.096 197.720,260.101 198.600 M299.720 199.200 C 299.720 200.410,299.795 200.905,299.887 200.300 C 299.978 199.695,299.978 198.705,299.887 198.100 C 299.795 197.495,299.720 197.990,299.720 199.200 M313.337 200.200 C 313.339 201.960,313.409 202.630,313.493 201.689 C 313.578 200.749,313.577 199.309,313.491 198.489 C 313.405 197.670,313.336 198.440,313.337 200.200 M108.400 199.400 C 107.428 200.390,106.723 201.200,106.833 201.200 C 106.943 201.200,107.828 200.390,108.800 199.400 C 109.772 198.410,110.477 197.600,110.367 197.600 C 110.257 197.600,109.372 198.410,108.400 199.400 M34.546 203.000 C 34.547 205.200,34.614 206.049,34.695 204.887 C 34.776 203.724,34.776 201.924,34.693 200.887 C 34.611 199.849,34.545 200.800,34.546 203.000 M202.542 202.600 C 202.541 204.580,202.608 205.440,202.692 204.512 C 202.776 203.584,202.777 201.964,202.695 200.912 C 202.612 199.860,202.543 200.620,202.542 202.600 M291.180 202.290 C 291.071 203.219,291.133 203.827,291.320 203.640 C 291.506 203.454,291.596 202.694,291.519 201.951 C 291.383 200.633,291.375 200.642,291.180 202.290 M353.894 201.089 C 354.261 201.350,354.417 204.401,354.503 213.020 L 354.619 224.600 354.609 212.833 C 354.601 202.719,354.516 201.043,354.000 200.903 C 353.562 200.783,353.534 200.834,353.894 201.089 M86.148 205.200 C 86.148 207.510,86.214 208.455,86.295 207.300 C 86.376 206.145,86.376 204.255,86.295 203.100 C 86.214 201.945,86.148 202.890,86.148 205.200 M119.186 204.300 L 117.000 206.600 119.300 204.414 C 121.437 202.382,121.783 202.000,121.486 202.000 C 121.424 202.000,120.389 203.035,119.186 204.300 M246.114 203.800 C 246.117 204.900,246.195 205.303,246.287 204.695 C 246.379 204.086,246.377 203.186,246.282 202.695 C 246.187 202.203,246.111 202.700,246.114 203.800 M98.914 207.400 C 98.917 208.500,98.995 208.903,99.087 208.295 C 99.179 207.686,99.177 206.786,99.082 206.295 C 98.987 205.803,98.911 206.300,98.914 207.400 M219.293 206.800 C 219.293 207.570,219.375 207.885,219.476 207.500 C 219.576 207.115,219.576 206.485,219.476 206.100 C 219.375 205.715,219.293 206.030,219.293 206.800 M202.901 207.800 C 202.905 208.680,202.987 208.993,203.083 208.495 C 203.179 207.998,203.175 207.278,203.075 206.895 C 202.975 206.513,202.896 206.920,202.901 207.800 M260.928 209.200 C 260.928 210.630,261.001 211.215,261.089 210.500 C 261.178 209.785,261.178 208.615,261.089 207.900 C 261.001 207.185,260.928 207.770,260.928 209.200 M312.914 209.000 C 312.917 210.100,312.995 210.503,313.087 209.895 C 313.179 209.286,313.177 208.386,313.082 207.895 C 312.987 207.403,312.911 207.900,312.914 209.000 M113.578 209.500 L 112.200 211.000 113.700 209.622 C 115.096 208.338,115.384 208.000,115.078 208.000 C 115.012 208.000,114.337 208.675,113.578 209.500 M181.314 209.800 C 181.317 210.900,181.395 211.303,181.487 210.695 C 181.579 210.086,181.577 209.186,181.482 208.695 C 181.387 208.203,181.311 208.700,181.314 209.800 M68.800 208.733 C 68.800 209.075,65.980 209.225,58.300 209.293 L 47.800 209.386 58.173 209.500 C 67.867 209.606,69.956 209.422,69.073 208.540 C 68.923 208.390,68.800 208.477,68.800 208.733 M34.955 214.200 C 34.956 217.060,35.020 218.178,35.097 216.683 C 35.174 215.189,35.174 212.849,35.096 211.483 C 35.018 210.118,34.955 211.340,34.955 214.200 M245.701 211.000 C 245.705 211.880,245.787 212.193,245.883 211.695 C 245.979 211.198,245.975 210.478,245.875 210.095 C 245.775 209.713,245.696 210.120,245.701 211.000 M300.124 211.800 C 300.126 213.120,300.201 213.612,300.290 212.893 C 300.379 212.174,300.377 211.094,300.286 210.493 C 300.195 209.892,300.122 210.480,300.124 211.800 M47.724 213.000 C 47.726 214.320,47.801 214.812,47.890 214.093 C 47.979 213.374,47.977 212.294,47.886 211.693 C 47.795 211.092,47.722 211.680,47.724 213.000 M334.528 214.000 C 334.528 215.430,334.601 216.015,334.689 215.300 C 334.778 214.585,334.778 213.415,334.689 212.700 C 334.601 211.985,334.528 212.570,334.528 214.000 M146.920 214.000 C 146.920 215.210,146.995 215.705,147.087 215.100 C 147.178 214.495,147.178 213.505,147.087 212.900 C 146.995 212.295,146.920 212.790,146.920 214.000 M86.524 214.600 C 86.526 215.920,86.601 216.412,86.690 215.693 C 86.779 214.974,86.777 213.894,86.686 213.293 C 86.595 212.692,86.522 213.280,86.524 214.600 M322.493 213.600 C 322.493 214.370,322.575 214.685,322.676 214.300 C 322.776 213.915,322.776 213.285,322.676 212.900 C 322.575 212.515,322.493 212.830,322.493 213.600 M366.959 218.000 C 366.959 221.190,367.021 222.495,367.097 220.900 C 367.173 219.305,367.173 216.695,367.097 215.100 C 367.021 213.505,366.959 214.810,366.959 218.000 M113.200 212.925 C 113.200 212.994,113.785 213.579,114.500 214.225 L 115.800 215.400 114.625 214.100 C 113.530 212.888,113.200 212.616,113.200 212.925 M222.920 213.098 C 224.855 213.172,227.915 213.171,229.720 213.097 C 231.524 213.023,229.940 212.963,226.200 212.964 C 222.460 212.964,220.984 213.025,222.920 213.098 M261.324 215.400 C 261.326 216.720,261.401 217.212,261.490 216.493 C 261.579 215.774,261.577 214.694,261.486 214.093 C 261.395 213.492,261.322 214.080,261.324 215.400 M98.846 215.100 C 98.882 215.943,98.939 216.013,99.093 215.400 C 99.203 214.960,99.497 214.468,99.746 214.306 C 100.034 214.120,99.944 214.010,99.500 214.006 C 98.990 214.002,98.813 214.299,98.846 215.100 M273.714 216.600 C 273.717 217.700,273.795 218.103,273.887 217.495 C 273.979 216.886,273.977 215.986,273.882 215.495 C 273.787 215.003,273.711 215.500,273.714 216.600 M245.354 220.400 C 245.354 223.150,245.418 224.275,245.496 222.900 C 245.574 221.525,245.574 219.275,245.496 217.900 C 245.418 216.525,245.354 217.650,245.354 220.400 M134.537 219.000 C 134.539 220.760,134.609 221.430,134.693 220.489 C 134.778 219.549,134.777 218.109,134.691 217.289 C 134.605 216.470,134.536 217.240,134.537 219.000 M322.140 219.200 C 322.140 221.070,322.209 221.835,322.293 220.900 C 322.377 219.965,322.377 218.435,322.293 217.500 C 322.209 216.565,322.140 217.330,322.140 219.200 M312.914 218.200 C 312.917 219.300,312.995 219.703,313.087 219.095 C 313.179 218.486,313.177 217.586,313.082 217.095 C 312.987 216.603,312.911 217.100,312.914 218.200 M300.120 218.800 C 300.120 220.010,300.195 220.505,300.287 219.900 C 300.378 219.295,300.378 218.305,300.287 217.700 C 300.195 217.095,300.120 217.590,300.120 218.800 M48.120 220.000 C 48.120 221.210,48.195 221.705,48.287 221.100 C 48.378 220.495,48.378 219.505,48.287 218.900 C 48.195 218.295,48.120 218.790,48.120 220.000 M86.120 220.400 C 86.120 221.610,86.195 222.105,86.287 221.500 C 86.378 220.895,86.378 219.905,86.287 219.300 C 86.195 218.695,86.120 219.190,86.120 220.400 M260.934 221.600 C 260.934 223.250,261.005 223.925,261.091 223.100 C 261.178 222.275,261.178 220.925,261.091 220.100 C 261.005 219.275,260.934 219.950,260.934 221.600 M274.137 222.600 C 274.139 224.360,274.209 225.030,274.293 224.089 C 274.378 223.149,274.377 221.709,274.291 220.889 C 274.205 220.070,274.136 220.840,274.137 222.600 M34.520 222.400 C 34.520 223.610,34.595 224.105,34.687 223.500 C 34.778 222.895,34.778 221.905,34.687 221.300 C 34.595 220.695,34.520 221.190,34.520 222.400 M99.324 224.600 C 99.326 225.920,99.401 226.412,99.490 225.693 C 99.579 224.974,99.577 223.894,99.486 223.293 C 99.395 222.692,99.322 223.280,99.324 224.600 M313.340 227.600 C 313.340 229.470,313.409 230.235,313.493 229.300 C 313.577 228.365,313.577 226.835,313.493 225.900 C 313.409 224.965,313.340 225.730,313.340 227.600 M85.728 230.400 C 85.728 231.830,85.801 232.415,85.889 231.700 C 85.978 230.985,85.978 229.815,85.889 229.100 C 85.801 228.385,85.728 228.970,85.728 230.400 M345.700 228.276 C 346.085 228.376,346.715 228.376,347.100 228.276 C 347.485 228.175,347.170 228.093,346.400 228.093 C 345.630 228.093,345.315 228.175,345.700 228.276 M299.714 230.200 C 299.717 231.300,299.795 231.703,299.887 231.095 C 299.979 230.486,299.977 229.586,299.882 229.095 C 299.787 228.603,299.711 229.100,299.714 230.200 M99.714 230.600 C 99.717 231.700,99.795 232.103,99.887 231.495 C 99.979 230.886,99.977 229.986,99.882 229.495 C 99.787 229.003,99.711 229.500,99.714 230.600 M245.720 231.200 C 245.720 232.410,245.795 232.905,245.887 232.300 C 245.978 231.695,245.978 230.705,245.887 230.100 C 245.795 229.495,245.720 229.990,245.720 231.200 M260.509 231.600 C 260.509 232.590,260.587 232.995,260.682 232.500 C 260.778 232.005,260.778 231.195,260.682 230.700 C 260.587 230.205,260.509 230.610,260.509 231.600 M74.901 231.800 C 74.905 232.680,74.987 232.993,75.083 232.495 C 75.179 231.998,75.175 231.278,75.075 230.895 C 74.975 230.513,74.896 230.920,74.901 231.800 M157.705 230.687 C 158.314 230.779,159.214 230.777,159.705 230.682 C 160.197 230.587,159.700 230.511,158.600 230.514 C 157.500 230.517,157.097 230.595,157.705 230.687 M227.800 230.800 C 227.296 231.017,227.222 231.144,227.600 231.144 C 227.930 231.144,228.560 230.989,229.000 230.800 C 229.504 230.583,229.578 230.456,229.200 230.456 C 228.870 230.456,228.240 230.611,227.800 230.800 M34.120 232.800 C 34.120 234.010,34.195 234.505,34.287 233.900 C 34.378 233.295,34.378 232.305,34.287 231.700 C 34.195 231.095,34.120 231.590,34.120 232.800 M274.514 233.400 C 274.517 234.500,274.595 234.903,274.687 234.295 C 274.779 233.686,274.777 232.786,274.682 232.295 C 274.587 231.803,274.511 232.300,274.514 233.400 M299.324 235.000 C 299.326 236.320,299.401 236.812,299.490 236.093 C 299.579 235.374,299.577 234.294,299.486 233.693 C 299.395 233.092,299.322 233.680,299.324 235.000 M313.714 235.000 C 313.717 236.100,313.795 236.503,313.887 235.895 C 313.979 235.286,313.977 234.386,313.882 233.895 C 313.787 233.403,313.711 233.900,313.714 235.000 M85.320 236.800 C 85.320 238.010,85.395 238.505,85.487 237.900 C 85.578 237.295,85.578 236.305,85.487 235.700 C 85.395 235.095,85.320 235.590,85.320 236.800 M350.378 236.300 L 349.000 237.800 350.500 236.422 C 351.896 235.138,352.184 234.800,351.878 234.800 C 351.812 234.800,351.137 235.475,350.378 236.300 M260.060 238.676 C 260.027 240.478,260.135 242.037,260.300 242.139 C 260.465 242.242,260.550 241.218,260.488 239.863 C 260.300 235.722,260.123 235.231,260.060 238.676 M33.720 238.000 C 33.720 239.210,33.795 239.705,33.887 239.100 C 33.978 238.495,33.978 237.505,33.887 236.900 C 33.795 236.295,33.720 236.790,33.720 238.000 M74.093 240.000 C 74.093 240.770,74.175 241.085,74.276 240.700 C 74.376 240.315,74.376 239.685,74.276 239.300 C 74.175 238.915,74.093 239.230,74.093 240.000 M303.600 241.200 C 302.796 241.457,302.757 241.523,303.400 241.532 C 303.840 241.538,304.560 241.389,305.000 241.200 C 306.019 240.762,304.968 240.762,303.600 241.200 M33.703 241.600 C 33.846 242.123,36.406 242.201,53.633 242.206 L 73.400 242.212 53.821 242.102 C 38.798 242.018,34.161 241.877,33.891 241.496 C 33.633 241.132,33.583 241.160,33.703 241.600 M209.200 241.982 C 209.530 242.205,210.145 242.391,210.567 242.394 C 211.590 242.402,211.271 242.173,209.800 241.844 C 208.924 241.648,208.762 241.685,209.200 241.982 M338.900 242.276 C 339.285 242.376,339.915 242.376,340.300 242.276 C 340.685 242.175,340.370 242.093,339.600 242.093 C 338.830 242.093,338.515 242.175,338.900 242.276 M224.300 243.082 C 224.795 243.178,225.605 243.178,226.100 243.082 C 226.595 242.987,226.190 242.909,225.200 242.909 C 224.210 242.909,223.805 242.987,224.300 243.082 " stroke="none" fill="#76c2f4" fill-rule="evenodd"></path><path id="path3" d="M367.077 157.886 C 367.718 158.005,367.997 158.393,368.113 159.324 C 368.265 160.548,368.270 160.543,368.236 159.200 C 368.205 157.994,368.062 157.795,367.200 157.761 C 366.377 157.730,366.355 157.752,367.077 157.886 M94.400 158.400 L 93.000 158.695 94.400 158.741 C 95.170 158.767,96.070 158.613,96.400 158.400 C 97.127 157.930,96.633 157.930,94.400 158.400 M362.600 158.400 L 361.400 158.705 362.600 158.747 C 363.260 158.769,364.070 158.613,364.400 158.400 C 365.143 157.920,364.487 157.920,362.600 158.400 M90.200 159.200 L 89.000 159.505 90.200 159.547 C 90.860 159.569,91.670 159.413,92.000 159.200 C 92.743 158.720,92.087 158.720,90.200 159.200 M358.200 159.200 L 357.000 159.505 358.200 159.547 C 358.860 159.569,359.670 159.413,360.000 159.200 C 360.743 158.720,360.087 158.720,358.200 159.200 M86.107 160.010 L 85.214 160.369 85.462 169.885 C 85.599 175.118,85.800 179.490,85.910 179.600 C 86.019 179.710,86.007 175.435,85.882 170.100 C 85.674 161.194,85.711 160.399,86.328 160.394 C 86.698 160.391,87.270 160.213,87.600 160.000 C 88.406 159.479,87.410 159.486,86.107 160.010 M354.156 160.063 C 353.387 160.436,353.328 160.727,353.488 163.336 C 353.736 167.379,353.931 167.550,353.968 163.758 L 354.000 160.516 355.300 160.099 C 356.115 159.837,356.302 159.677,355.800 159.668 C 355.360 159.660,354.620 159.838,354.156 160.063 M307.305 161.087 C 307.914 161.179,308.814 161.177,309.305 161.082 C 309.797 160.987,309.300 160.911,308.200 160.914 C 307.100 160.917,306.697 160.995,307.305 161.087 M304.109 161.855 C 300.662 163.554,297.764 168.900,298.742 171.751 L 299.171 173.000 298.955 171.707 C 298.397 168.358,301.060 163.733,304.511 162.059 C 305.440 161.609,306.020 161.235,305.800 161.229 C 305.580 161.223,304.819 161.505,304.109 161.855 M313.194 163.003 C 314.787 164.921,314.921 165.045,314.486 164.196 C 314.259 163.753,313.652 163.034,313.137 162.598 C 312.233 161.834,312.235 161.848,313.194 163.003 M217.274 166.287 C 215.884 166.614,214.825 166.959,214.921 167.054 C 215.016 167.149,215.973 167.016,217.047 166.758 C 218.121 166.499,220.350 166.160,222.000 166.004 L 225.000 165.721 222.400 165.707 C 220.970 165.700,218.663 165.961,217.274 166.287 M230.200 166.019 C 232.400 166.181,235.253 166.525,236.539 166.784 C 237.826 167.043,238.957 167.177,239.053 167.081 C 239.445 166.688,231.874 165.605,229.143 165.663 C 226.213 165.725,226.218 165.727,230.200 166.019 M315.000 168.800 C 315.000 170.518,315.132 171.716,315.294 171.462 C 315.675 170.862,315.675 166.738,315.294 166.138 C 315.132 165.884,315.000 167.082,315.000 168.800 M367.462 178.329 C 367.276 185.440,367.211 191.344,367.316 191.450 C 367.570 191.703,368.106 171.341,367.934 168.000 C 367.860 166.570,367.648 171.218,367.462 178.329 M34.138 166.706 C 33.799 166.922,33.760 168.698,33.990 173.400 L 34.304 179.800 34.324 173.800 C 34.335 170.500,34.357 167.573,34.372 167.296 C 34.394 166.897,38.524 166.814,54.298 166.896 L 74.196 167.000 74.132 170.000 L 74.068 173.000 74.401 170.008 C 74.584 168.363,74.648 166.878,74.543 166.708 C 74.300 166.315,34.757 166.313,34.138 166.706 M99.409 174.878 C 99.255 179.345,99.192 183.900,99.268 185.000 C 99.345 186.100,99.563 182.537,99.753 177.083 C 99.944 171.628,100.007 167.074,99.894 166.961 C 99.782 166.848,99.563 170.411,99.409 174.878 M212.100 167.834 C 211.385 168.146,210.800 168.490,210.800 168.598 C 210.800 168.776,213.976 167.651,214.367 167.335 C 214.795 166.988,213.262 167.326,212.100 167.834 M240.200 167.600 C 241.396 168.114,242.395 168.114,241.600 167.600 C 241.270 167.387,240.640 167.222,240.200 167.234 L 239.400 167.256 240.200 167.600 M244.433 168.921 C 245.574 169.749,246.800 170.346,246.800 170.073 C 246.800 169.884,246.342 169.520,245.781 169.264 C 244.847 168.838,244.035 168.632,244.433 168.921 M204.800 172.047 C 200.656 175.143,195.605 180.849,193.746 184.535 C 192.864 186.284,193.513 185.508,195.739 182.150 C 198.000 178.739,201.745 174.759,204.900 172.414 C 206.907 170.922,207.483 170.395,207.100 170.402 C 207.045 170.403,206.010 171.143,204.800 172.047 M314.400 172.678 C 314.400 172.903,313.928 173.784,313.352 174.633 C 312.775 175.483,312.607 175.926,312.978 175.618 C 313.819 174.920,314.938 172.805,314.629 172.496 C 314.503 172.370,314.400 172.452,314.400 172.678 M354.096 174.600 C 354.087 175.700,354.214 178.130,354.378 180.000 L 354.676 183.400 354.699 180.200 C 354.711 178.440,354.584 176.010,354.417 174.800 L 354.113 172.600 354.096 174.600 M73.430 175.694 L 73.109 177.989 60.855 178.094 L 48.600 178.200 48.574 182.600 C 48.556 185.703,48.585 185.998,48.674 183.600 C 48.744 181.730,48.893 179.798,49.006 179.306 L 49.212 178.412 61.288 178.306 L 73.364 178.200 73.697 176.600 C 73.880 175.720,73.967 174.640,73.890 174.200 C 73.814 173.760,73.607 174.432,73.430 175.694 M300.000 175.463 C 300.000 175.690,300.360 176.202,300.800 176.600 C 301.240 176.998,301.600 177.199,301.600 177.045 C 301.600 176.892,301.240 176.380,300.800 175.908 C 300.360 175.436,300.000 175.235,300.000 175.463 M304.138 178.494 C 304.392 178.656,305.410 178.788,306.400 178.788 C 307.390 178.788,308.408 178.656,308.662 178.494 C 308.916 178.332,307.898 178.200,306.400 178.200 C 304.902 178.200,303.884 178.332,304.138 178.494 M218.715 179.128 C 218.338 179.278,219.924 179.400,222.239 179.400 C 224.553 179.400,226.032 179.283,225.524 179.140 C 224.294 178.794,219.578 178.785,218.715 179.128 M215.200 180.000 C 214.667 180.345,214.667 180.388,215.200 180.388 C 215.530 180.388,216.070 180.213,216.400 180.000 C 216.933 179.655,216.933 179.612,216.400 179.612 C 216.070 179.612,215.530 179.787,215.200 180.000 M210.372 182.696 C 207.942 184.747,204.400 189.406,204.400 190.553 C 204.400 190.789,205.071 189.847,205.892 188.459 C 207.303 186.075,209.775 183.428,212.000 181.920 C 212.550 181.547,212.807 181.233,212.572 181.221 C 212.337 181.209,211.347 181.873,210.372 182.696 M238.200 183.790 C 239.080 184.332,240.160 184.760,240.600 184.741 C 241.346 184.709,241.349 184.694,240.644 184.513 C 240.228 184.407,239.328 183.978,238.644 183.561 C 237.960 183.144,237.220 182.803,237.000 182.804 C 236.780 182.804,237.320 183.248,238.200 183.790 M34.450 191.033 C 34.478 194.755,34.636 200.410,34.803 203.600 C 34.996 207.325,35.033 204.964,34.905 197.000 C 34.795 190.180,34.636 184.525,34.553 184.433 C 34.469 184.342,34.423 187.312,34.450 191.033 M159.500 185.882 C 159.995 185.978,160.805 185.978,161.300 185.882 C 161.795 185.787,161.390 185.709,160.400 185.709 C 159.410 185.709,159.005 185.787,159.500 185.882 M154.800 186.400 C 154.005 186.914,155.004 186.914,156.200 186.400 L 157.000 186.056 156.200 186.034 C 155.760 186.022,155.130 186.187,154.800 186.400 M164.600 186.400 C 165.040 186.589,165.760 186.744,166.200 186.744 L 167.000 186.744 166.200 186.400 C 165.760 186.211,165.040 186.056,164.600 186.056 L 163.800 186.056 164.600 186.400 M192.200 187.200 C 191.838 187.901,191.626 188.559,191.729 188.662 C 191.832 188.765,192.206 188.269,192.560 187.560 C 192.914 186.851,193.126 186.193,193.031 186.098 C 192.936 186.003,192.562 186.499,192.200 187.200 M119.600 187.400 C 119.083 187.950,118.806 188.400,118.983 188.400 C 119.284 188.400,120.800 186.847,120.800 186.539 C 120.800 186.229,120.494 186.449,119.600 187.400 M121.200 186.943 C 121.200 187.165,125.549 190.000,125.889 190.000 C 126.054 190.000,125.202 189.286,123.995 188.413 C 121.999 186.970,121.200 186.550,121.200 186.943 M268.600 187.200 C 268.096 187.417,268.022 187.544,268.400 187.544 C 268.730 187.544,269.360 187.389,269.800 187.200 C 270.304 186.983,270.378 186.856,270.000 186.856 C 269.670 186.856,269.040 187.011,268.600 187.200 M290.400 187.200 C 289.453 187.503,289.468 187.522,290.700 187.560 C 291.415 187.582,292.000 187.810,292.000 188.067 C 292.000 188.323,292.094 188.439,292.209 188.324 C 292.475 188.058,292.002 186.786,291.657 186.840 C 291.516 186.862,290.950 187.024,290.400 187.200 M309.600 187.200 L 308.600 187.520 309.600 187.532 C 310.150 187.538,310.960 187.389,311.400 187.200 L 312.200 186.856 311.400 186.868 C 310.960 186.874,310.150 187.024,309.600 187.200 M313.260 192.101 C 313.183 195.015,313.205 197.310,313.309 197.200 C 313.658 196.830,314.065 186.800,313.731 186.801 C 313.549 186.801,313.337 189.186,313.260 192.101 M346.000 187.190 C 345.033 187.386,345.713 187.477,348.200 187.481 C 351.059 187.486,351.470 187.422,350.200 187.167 C 348.359 186.798,347.917 186.800,346.000 187.190 M150.300 188.229 C 149.695 188.557,149.200 188.910,149.200 189.013 C 149.200 189.399,149.832 189.157,150.800 188.400 C 151.989 187.470,151.811 187.409,150.300 188.229 M171.444 189.130 C 172.746 189.972,174.293 191.232,174.880 191.930 C 175.468 192.629,176.087 193.200,176.255 193.200 C 176.424 193.200,175.851 192.457,174.981 191.549 C 173.402 189.901,170.185 187.600,169.460 187.600 C 169.249 187.600,170.142 188.289,171.444 189.130 M264.600 188.000 L 263.800 188.344 264.600 188.366 C 265.040 188.378,265.670 188.213,266.000 188.000 C 266.795 187.486,265.796 187.486,264.600 188.000 M305.200 188.000 L 304.200 188.320 305.200 188.354 C 305.750 188.373,306.470 188.213,306.800 188.000 C 307.564 187.506,306.742 187.506,305.200 188.000 M341.600 188.000 C 341.067 188.345,341.067 188.388,341.600 188.388 C 341.930 188.388,342.470 188.213,342.800 188.000 C 343.333 187.655,343.333 187.612,342.800 187.612 C 342.470 187.612,341.930 187.787,341.600 188.000 M261.000 188.800 L 260.200 189.144 261.000 189.166 C 261.440 189.178,262.070 189.013,262.400 188.800 C 263.195 188.286,262.196 188.286,261.000 188.800 M301.000 188.800 L 300.200 189.144 301.000 189.144 C 301.440 189.144,302.160 188.989,302.600 188.800 L 303.400 188.456 302.600 188.456 C 302.160 188.456,301.440 188.611,301.000 188.800 M114.473 193.100 C 112.269 195.465,110.525 197.458,110.597 197.530 C 110.705 197.638,112.956 195.320,114.600 193.410 C 114.820 193.154,115.893 192.012,116.985 190.872 C 118.077 189.733,118.859 188.800,118.724 188.800 C 118.589 188.800,116.676 190.735,114.473 193.100 M272.528 191.200 C 272.528 192.630,272.601 193.215,272.689 192.500 C 272.778 191.785,272.778 190.615,272.689 189.900 C 272.601 189.185,272.528 189.770,272.528 191.200 M146.239 191.234 C 145.015 192.353,143.449 194.018,142.759 194.934 C 141.648 196.410,141.708 196.375,143.283 194.631 C 144.261 193.548,145.948 191.887,147.031 190.939 C 148.114 189.992,148.880 189.213,148.732 189.208 C 148.585 189.204,147.463 190.115,146.239 191.234 M299.486 193.100 C 299.783 198.313,300.109 198.458,299.937 193.300 C 299.862 191.046,299.679 189.201,299.532 189.200 C 299.385 189.200,299.364 190.955,299.486 193.100 M86.123 194.600 C 86.115 197.460,86.231 202.680,86.382 206.200 L 86.656 212.600 86.681 206.400 C 86.694 202.990,86.578 197.770,86.421 194.800 L 86.137 189.400 86.123 194.600 M126.400 190.285 C 126.400 190.634,127.999 191.738,128.200 191.528 C 128.267 191.457,127.889 191.077,127.361 190.681 C 126.832 190.286,126.400 190.108,126.400 190.285 M291.460 192.890 C 291.321 194.051,291.231 196.350,291.261 198.000 C 291.306 200.517,291.369 200.199,291.650 196.026 C 291.999 190.860,291.900 189.229,291.460 192.890 M279.574 194.486 C 275.957 198.647,275.837 198.801,276.238 198.788 C 276.437 198.781,277.206 197.971,277.946 196.988 C 278.687 196.005,280.007 194.465,280.879 193.566 C 281.751 192.667,282.384 191.851,282.286 191.752 C 282.187 191.654,280.967 192.884,279.574 194.486 M332.982 193.111 C 331.235 194.719,327.597 199.051,327.604 199.516 C 327.607 199.672,328.095 199.170,328.690 198.400 C 329.284 197.630,330.932 195.785,332.351 194.300 C 335.205 191.314,335.463 190.827,332.982 193.111 M129.521 192.630 L 130.421 193.260 129.210 194.390 C 128.545 195.012,128.000 195.664,128.000 195.839 C 128.000 196.014,128.628 195.548,129.395 194.805 C 130.784 193.459,130.604 192.000,129.049 192.000 C 128.814 192.000,129.027 192.283,129.521 192.630 M203.284 193.500 C 203.041 194.325,202.748 195.990,202.633 197.200 L 202.425 199.400 202.955 196.800 C 203.246 195.370,203.619 193.705,203.785 193.100 C 204.244 191.425,203.789 191.788,203.284 193.500 M259.876 194.600 C 260.005 195.920,260.176 197.075,260.256 197.167 C 260.563 197.521,260.325 193.757,259.992 193.000 C 259.769 192.492,259.726 193.076,259.876 194.600 M48.162 195.600 L 48.200 197.800 59.019 197.906 L 69.838 198.013 69.744 199.506 L 69.650 201.000 69.948 199.600 C 70.111 198.830,70.179 198.065,70.099 197.900 C 70.019 197.735,65.113 197.600,59.197 197.600 L 48.442 197.600 48.283 195.500 L 48.124 193.400 48.162 195.600 M272.909 195.600 C 272.909 196.590,272.987 196.995,273.082 196.500 C 273.178 196.005,273.178 195.195,273.082 194.700 C 272.987 194.205,272.909 194.610,272.909 195.600 M98.800 197.937 C 98.800 199.223,98.682 202.463,98.539 205.137 C 98.185 211.705,98.059 211.753,106.762 202.000 L 110.510 197.800 107.349 201.000 C 105.611 202.760,103.219 205.325,102.034 206.700 C 98.853 210.391,98.823 210.347,99.092 202.400 C 99.218 198.660,99.205 195.600,99.061 195.600 C 98.917 195.600,98.800 196.652,98.800 197.937 M188.600 198.000 C 188.448 198.691,188.414 199.347,188.524 199.457 C 188.634 199.567,188.848 199.091,189.000 198.400 C 189.152 197.709,189.186 197.053,189.076 196.943 C 188.966 196.833,188.752 197.309,188.600 198.000 M366.668 209.900 C 366.531 217.105,366.550 224.170,366.710 225.600 C 366.880 227.126,367.042 221.715,367.103 212.500 C 367.159 203.865,367.140 196.800,367.061 196.800 C 366.981 196.800,366.804 202.695,366.668 209.900 M123.600 199.669 C 118.629 204.291,114.844 207.999,115.113 207.981 C 115.439 207.960,126.308 197.616,126.000 197.620 C 125.890 197.622,124.810 198.544,123.600 199.669 M260.708 202.600 C 260.818 204.800,260.974 206.675,261.054 206.767 C 261.335 207.088,261.117 200.589,260.813 199.600 C 260.645 199.050,260.597 200.400,260.708 202.600 M273.352 200.169 C 273.408 202.000,273.976 202.377,274.760 201.101 C 275.307 200.211,275.303 200.209,274.483 200.938 C 273.660 201.670,273.651 201.662,273.479 200.138 L 273.305 198.600 273.352 200.169 M154.800 199.612 C 154.381 199.891,154.742 199.933,156.000 199.750 C 158.241 199.425,158.560 199.198,156.767 199.206 C 156.015 199.209,155.130 199.392,154.800 199.612 M158.433 199.344 C 158.525 199.424,159.410 199.596,160.400 199.727 C 161.602 199.886,161.934 199.847,161.400 199.610 C 160.636 199.272,158.086 199.043,158.433 199.344 M343.000 199.592 C 342.143 199.816,342.821 199.919,345.367 199.953 C 347.328 199.979,348.858 199.933,348.767 199.850 C 348.374 199.497,344.098 199.306,343.000 199.592 M202.134 202.400 C 202.134 204.050,202.205 204.725,202.291 203.900 C 202.378 203.075,202.378 201.725,202.291 200.900 C 202.205 200.075,202.134 200.750,202.134 202.400 M163.400 200.748 C 165.001 201.743,166.221 203.111,167.211 205.023 C 167.681 205.929,167.915 206.175,167.762 205.600 C 167.260 203.720,163.885 199.998,162.686 200.001 C 162.419 200.002,162.740 200.338,163.400 200.748 M179.612 200.400 C 179.612 200.730,179.787 201.270,180.000 201.600 C 180.345 202.133,180.388 202.133,180.388 201.600 C 180.388 201.270,180.213 200.730,180.000 200.400 C 179.655 199.867,179.612 199.867,179.612 200.400 M326.586 201.300 L 325.952 202.600 326.767 201.600 C 327.552 200.637,327.808 200.000,327.410 200.000 C 327.306 200.000,326.935 200.585,326.586 201.300 M339.363 200.989 C 337.677 201.999,335.917 204.255,335.447 206.005 C 335.300 206.552,335.561 206.244,336.025 205.319 C 337.044 203.293,338.498 201.782,340.392 200.780 C 341.167 200.370,341.620 200.029,341.400 200.021 C 341.180 200.014,340.263 200.449,339.363 200.989 M351.200 200.400 C 351.750 200.576,352.650 200.717,353.200 200.713 C 354.098 200.706,354.078 200.674,353.000 200.400 C 351.308 199.969,349.856 199.969,351.200 200.400 M300.200 214.800 C 300.200 227.650,300.233 228.362,300.543 222.289 C 300.734 218.553,300.734 212.257,300.543 208.089 C 300.218 200.993,300.200 201.346,300.200 214.800 M69.170 203.100 C 69.154 204.145,69.019 205.810,68.870 206.800 L 68.600 208.600 58.400 208.810 L 48.200 209.021 58.457 209.110 C 67.905 209.193,68.736 209.145,68.983 208.500 C 69.362 207.514,69.774 201.200,69.459 201.200 C 69.317 201.200,69.187 202.055,69.170 203.100 M187.859 203.300 C 187.529 206.045,187.570 211.378,187.936 213.400 C 188.108 214.352,188.232 212.207,188.243 208.100 C 188.263 200.560,188.233 200.188,187.859 203.300 M220.014 202.374 C 219.786 202.799,219.621 203.744,219.646 204.474 L 219.692 205.800 219.986 204.280 C 220.446 201.907,220.066 201.968,233.532 202.089 C 240.389 202.150,246.000 202.065,246.000 201.900 C 246.000 201.105,220.444 201.571,220.014 202.374 M290.832 202.681 C 290.803 203.476,290.555 203.576,288.300 203.704 L 285.800 203.846 288.313 203.923 C 290.866 204.001,291.580 203.585,291.069 202.313 C 290.956 202.031,290.849 202.196,290.832 202.681 M312.703 204.600 C 312.539 206.140,312.430 208.840,312.460 210.600 C 312.513 213.734,312.521 213.705,312.860 209.200 C 313.268 203.765,313.152 200.366,312.703 204.600 M180.487 203.600 C 180.491 204.150,180.632 205.140,180.800 205.800 L 181.105 207.000 181.113 205.800 C 181.117 205.140,180.976 204.150,180.800 203.600 L 180.480 202.600 180.487 203.600 M282.400 204.367 C 280.370 204.766,276.733 206.638,274.840 208.259 L 273.200 209.662 273.247 214.131 C 273.272 216.589,273.428 219.770,273.593 221.200 C 273.763 222.674,273.804 220.758,273.688 216.778 L 273.482 209.755 275.039 208.472 C 276.879 206.955,281.163 204.817,282.475 204.760 C 283.738 204.706,285.718 204.077,284.600 204.086 C 284.160 204.089,283.170 204.216,282.400 204.367 M245.498 207.200 C 245.338 208.410,245.231 210.840,245.260 212.600 L 245.313 215.800 245.662 211.400 C 246.051 206.487,245.946 203.803,245.498 207.200 M202.650 208.855 C 202.765 210.535,203.116 212.785,203.429 213.855 C 203.796 215.109,203.915 215.303,203.764 214.400 C 203.635 213.630,203.284 211.380,202.985 209.400 L 202.440 205.800 202.650 208.855 M136.229 207.429 C 136.081 208.015,136.038 208.572,136.132 208.666 C 136.227 208.760,136.424 208.358,136.571 207.771 C 136.719 207.185,136.762 206.628,136.668 206.534 C 136.573 206.440,136.376 206.842,136.229 207.429 M168.056 207.200 C 168.056 207.530,168.211 208.160,168.400 208.600 C 168.617 209.104,168.744 209.178,168.744 208.800 C 168.744 208.470,168.589 207.840,168.400 207.400 C 168.183 206.896,168.056 206.822,168.056 207.200 M324.046 207.067 C 324.021 207.324,323.884 207.864,323.741 208.267 C 323.540 208.836,323.594 208.897,323.979 208.542 C 324.252 208.291,324.389 207.751,324.284 207.342 C 324.179 206.934,324.072 206.810,324.046 207.067 M334.682 208.350 C 334.527 209.093,334.420 210.173,334.444 210.750 C 334.473 211.442,334.610 211.187,334.847 210.000 C 335.045 209.010,335.152 207.930,335.085 207.600 C 335.019 207.270,334.838 207.607,334.682 208.350 M147.076 208.810 C 146.930 209.355,146.828 210.340,146.849 211.000 C 146.880 211.957,146.959 211.836,147.242 210.400 C 147.629 208.433,147.502 207.217,147.076 208.810 M219.036 210.013 C 218.658 212.866,218.492 212.800,226.024 212.800 L 232.800 212.800 232.800 221.209 C 232.800 230.664,233.124 229.698,229.600 230.740 L 228.200 231.155 229.800 230.921 C 230.680 230.793,231.809 230.536,232.308 230.351 L 233.216 230.014 233.108 221.307 L 233.000 212.600 226.130 212.491 L 219.260 212.381 219.486 210.191 C 219.770 207.441,219.397 207.294,219.036 210.013 M261.380 215.200 C 261.383 221.899,261.417 222.268,261.740 219.097 C 261.951 217.034,261.949 213.993,261.737 211.697 C 261.396 208.013,261.377 208.204,261.380 215.200 M112.440 210.158 C 111.542 211.113,111.873 212.800,112.958 212.800 C 113.159 212.800,113.023 212.468,112.656 212.062 C 112.029 211.369,112.040 211.257,112.823 210.262 C 113.863 208.940,113.641 208.879,112.440 210.158 M135.453 210.836 C 135.314 211.531,135.221 212.572,135.247 213.150 C 135.272 213.728,135.455 213.227,135.652 212.039 C 136.037 209.721,135.873 208.734,135.453 210.836 M323.249 210.000 C 323.216 210.330,323.089 211.050,322.967 211.600 C 322.775 212.464,322.807 212.503,323.199 211.888 C 323.448 211.497,323.575 210.777,323.481 210.288 C 323.386 209.800,323.282 209.670,323.249 210.000 M168.897 215.200 C 168.897 219.411,168.928 219.606,169.267 217.500 C 169.494 216.089,169.494 214.311,169.267 212.900 C 168.928 210.794,168.897 210.989,168.897 215.200 M98.447 215.100 C 98.472 216.145,98.639 218.170,98.818 219.600 C 99.101 221.874,99.125 221.685,99.009 218.100 C 98.898 214.706,98.976 214.000,99.461 214.000 C 99.784 214.000,99.936 213.820,99.800 213.600 C 99.107 212.478,98.401 213.260,98.447 215.100 M113.837 214.035 C 114.297 214.566,116.351 216.980,118.402 219.400 C 120.452 221.820,122.056 223.588,121.965 223.329 C 121.752 222.721,114.045 213.668,113.451 213.329 C 113.203 213.187,113.377 213.505,113.837 214.035 M180.618 215.126 C 180.453 216.295,180.413 217.346,180.529 217.462 C 180.814 217.747,181.331 214.187,181.100 213.525 C 181.000 213.236,180.782 213.957,180.618 215.126 M35.301 215.000 C 35.305 215.880,35.387 216.193,35.483 215.695 C 35.579 215.198,35.575 214.478,35.475 214.095 C 35.375 213.713,35.296 214.120,35.301 215.000 M312.507 217.400 C 312.496 219.380,312.621 222.080,312.785 223.400 L 313.082 225.800 313.099 223.400 C 313.108 222.080,312.983 219.380,312.821 217.400 L 312.527 213.800 312.507 217.400 M322.551 219.200 C 322.551 221.730,322.616 222.765,322.696 221.500 C 322.775 220.235,322.775 218.165,322.696 216.900 C 322.616 215.635,322.551 216.670,322.551 219.200 M47.718 218.600 C 47.711 220.580,47.832 223.550,47.988 225.200 L 48.271 228.200 48.288 225.600 C 48.298 224.170,48.177 221.200,48.019 219.000 L 47.732 215.000 47.718 218.600 M134.944 218.800 C 134.944 220.890,135.012 221.745,135.094 220.700 C 135.176 219.655,135.176 217.945,135.094 216.900 C 135.012 215.855,134.944 216.710,134.944 218.800 M146.806 217.633 C 146.809 218.605,146.985 219.670,147.196 220.000 C 147.452 220.401,147.498 219.870,147.334 218.400 C 147.027 215.652,146.798 215.320,146.806 217.633 M204.241 217.000 C 204.556 218.421,206.739 223.115,207.225 223.416 C 207.412 223.531,206.946 222.404,206.190 220.913 C 205.434 219.421,204.809 217.930,204.801 217.600 C 204.794 217.270,204.605 216.730,204.382 216.400 C 204.085 215.961,204.047 216.123,204.241 217.000 M188.446 216.800 C 188.465 217.130,188.624 217.850,188.800 218.400 L 189.120 219.400 189.154 218.400 C 189.173 217.850,189.013 217.130,188.800 216.800 C 188.455 216.267,188.416 216.267,188.446 216.800 M334.487 217.400 C 334.483 218.060,334.624 219.050,334.800 219.600 L 335.120 220.600 335.113 219.600 C 335.109 219.050,334.968 218.060,334.800 217.400 L 334.495 216.200 334.487 217.400 M86.245 222.124 C 86.064 225.163,86.006 227.739,86.117 227.850 C 86.386 228.119,86.919 219.324,86.726 217.800 C 86.642 217.140,86.426 219.086,86.245 222.124 M34.604 224.476 C 34.450 227.404,34.389 230.430,34.468 231.200 C 34.547 231.970,34.759 229.660,34.938 226.066 C 35.118 222.472,35.180 219.446,35.075 219.342 C 34.970 219.237,34.759 221.547,34.604 224.476 M179.873 219.753 C 179.723 220.145,179.611 220.766,179.625 221.133 C 179.642 221.575,179.781 221.474,180.037 220.834 C 180.249 220.303,180.361 219.682,180.285 219.454 C 180.209 219.227,180.024 219.361,179.873 219.753 M335.451 221.600 C 335.860 223.224,337.048 225.342,338.031 226.200 C 338.849 226.914,338.835 226.849,337.897 225.592 C 337.318 224.817,336.475 223.377,336.022 222.392 C 335.569 221.406,335.312 221.050,335.451 221.600 M168.229 222.229 C 168.081 222.815,168.051 223.384,168.161 223.494 C 168.271 223.604,168.481 223.215,168.629 222.629 C 168.776 222.042,168.806 221.473,168.696 221.363 C 168.586 221.253,168.376 221.642,168.229 222.229 M105.445 222.612 C 105.810 223.169,106.186 223.547,106.282 223.451 C 106.519 223.214,105.484 221.600,105.095 221.600 C 104.922 221.600,105.080 222.056,105.445 222.612 M122.400 223.839 C 122.400 224.070,125.148 227.517,126.298 228.729 C 127.684 230.188,126.528 228.456,124.600 226.183 C 123.390 224.756,122.400 223.702,122.400 223.839 M135.275 224.600 C 135.265 225.260,135.411 226.160,135.600 226.600 L 135.944 227.400 135.925 226.600 C 135.914 226.160,135.768 225.260,135.600 224.600 L 135.295 223.400 135.275 224.600 M107.045 225.012 C 107.410 225.569,107.786 225.947,107.882 225.851 C 108.119 225.614,107.084 224.000,106.695 224.000 C 106.522 224.000,106.680 224.456,107.045 225.012 M148.410 224.300 C 148.470 226.109,154.010 230.838,155.978 230.759 C 156.873 230.723,156.838 230.680,155.694 230.408 C 153.617 229.916,151.394 228.211,149.976 226.023 C 148.686 224.032,148.390 223.707,148.410 224.300 M167.183 225.240 C 165.913 228.308,163.223 230.190,159.284 230.768 C 157.420 231.041,157.273 231.111,158.486 231.151 C 160.640 231.222,163.598 230.114,165.135 228.662 C 166.441 227.427,168.227 224.493,167.882 224.148 C 167.786 224.053,167.472 224.544,167.183 225.240 M208.020 224.600 C 208.949 225.984,211.367 228.447,212.200 228.857 C 212.640 229.074,212.370 228.713,211.600 228.055 C 210.830 227.396,209.589 226.170,208.842 225.329 C 208.095 224.488,207.725 224.160,208.020 224.600 M260.884 227.439 C 260.838 229.220,260.718 232.370,260.618 234.439 L 260.437 238.200 260.824 235.200 C 261.038 233.550,261.157 230.400,261.090 228.200 C 260.971 224.278,260.967 224.263,260.884 227.439 M353.041 225.627 C 352.183 226.272,351.600 226.800,351.746 226.800 C 352.200 226.800,354.790 225.016,354.795 224.700 C 354.802 224.299,354.822 224.288,353.041 225.627 M245.254 231.600 L 245.400 238.200 243.400 238.902 C 242.300 239.288,241.940 239.506,242.600 239.388 C 243.260 239.269,244.304 238.973,244.920 238.730 L 246.039 238.287 245.766 231.843 C 245.407 223.369,245.068 223.208,245.254 231.600 M322.868 225.600 C 322.888 226.639,323.518 228.346,323.532 227.400 C 323.538 226.960,323.389 226.240,323.200 225.800 C 322.989 225.310,322.861 225.232,322.868 225.600 M274.176 232.133 C 274.287 238.665,274.265 238.877,273.445 239.208 C 272.936 239.414,272.838 239.557,273.200 239.569 C 274.708 239.617,274.777 239.199,274.413 232.187 L 274.062 225.400 274.176 232.133 M112.577 233.100 C 115.057 236.785,117.479 240.250,117.959 240.800 C 118.439 241.350,116.530 238.343,113.716 234.119 C 110.902 229.894,108.480 226.429,108.334 226.419 C 108.188 226.408,110.097 229.415,112.577 233.100 M99.309 230.000 C 99.300 231.870,99.425 234.570,99.586 236.000 L 99.878 238.600 99.899 236.000 C 99.911 234.570,99.786 231.870,99.622 230.000 L 99.324 226.600 99.309 230.000 M339.875 227.652 C 340.329 228.106,340.967 228.415,341.294 228.339 C 341.653 228.255,341.327 227.929,340.468 227.514 L 339.049 226.827 339.875 227.652 M348.200 228.000 C 347.429 228.331,347.431 228.345,348.276 228.372 C 348.758 228.387,349.264 228.220,349.400 228.000 C 349.692 227.527,349.301 227.527,348.200 228.000 M192.644 228.500 C 194.956 232.463,199.537 237.044,203.500 239.356 C 204.736 240.076,203.830 239.194,202.300 238.187 C 199.830 236.560,195.393 232.171,193.957 229.933 C 192.880 228.255,191.837 227.116,192.644 228.500 M343.507 228.690 C 344.226 228.779,345.306 228.777,345.907 228.686 C 346.508 228.595,345.920 228.522,344.600 228.524 C 343.280 228.526,342.788 228.601,343.507 228.690 M367.256 229.400 C 367.256 229.840,367.411 230.560,367.600 231.000 L 367.944 231.800 367.944 231.000 C 367.944 230.560,367.789 229.840,367.600 229.400 L 367.256 228.600 367.256 229.400 M127.651 230.295 C 127.953 230.677,128.531 231.352,128.935 231.795 C 129.339 232.238,130.022 233.089,130.452 233.687 L 131.235 234.773 125.448 238.629 C 121.754 241.090,119.469 242.376,119.130 242.184 C 118.710 241.945,118.701 241.992,119.086 242.408 C 119.545 242.903,129.898 236.569,131.207 234.992 C 131.580 234.543,128.014 229.600,127.316 229.600 C 127.199 229.600,127.349 229.913,127.651 230.295 M48.745 230.506 C 48.914 230.674,54.890 230.764,62.026 230.705 L 75.000 230.599 61.720 230.400 C 54.415 230.290,48.577 230.338,48.745 230.506 M174.985 231.700 C 174.368 232.635,174.120 233.189,174.432 232.931 C 175.033 232.434,176.564 230.000,176.276 230.000 C 176.183 230.000,175.602 230.765,174.985 231.700 M215.000 230.320 C 215.988 231.236,218.423 231.596,223.160 231.526 L 228.200 231.452 222.600 231.206 C 219.520 231.071,216.460 230.733,215.800 230.455 C 215.140 230.177,214.780 230.116,215.000 230.320 M313.344 234.701 C 313.399 238.733,313.383 238.808,312.400 239.169 C 311.491 239.503,311.478 239.540,312.251 239.568 C 313.742 239.624,313.947 238.873,313.606 234.600 L 313.288 230.600 313.344 234.701 M351.432 234.700 L 348.728 237.800 351.502 234.900 C 354.715 231.541,354.680 231.556,355.030 233.419 C 355.176 234.199,355.386 234.747,355.496 234.637 C 355.890 234.243,355.153 231.600,354.649 231.600 C 354.366 231.600,352.918 232.995,351.432 234.700 M74.272 233.404 C 74.127 234.282,74.031 235.900,74.058 237.000 C 74.098 238.656,74.165 238.450,74.448 235.800 C 74.816 232.349,74.703 230.798,74.272 233.404 M299.423 236.648 C 299.101 241.877,299.173 242.059,301.400 241.583 L 303.000 241.240 301.281 241.333 L 299.562 241.425 299.838 236.712 C 299.989 234.121,300.022 232.000,299.911 232.000 C 299.800 232.000,299.580 234.092,299.423 236.648 M368.068 232.400 C 368.088 233.439,368.718 235.146,368.732 234.200 C 368.738 233.760,368.589 233.040,368.400 232.600 C 368.189 232.110,368.061 232.032,368.068 232.400 M325.644 233.300 C 326.512 234.955,328.421 237.150,330.119 238.444 C 331.660 239.619,331.629 239.562,329.750 237.763 C 328.622 236.683,327.203 235.035,326.597 234.100 C 325.416 232.280,324.867 231.820,325.644 233.300 M85.477 237.097 C 85.201 241.981,85.225 242.038,87.400 241.608 L 89.000 241.292 87.343 241.246 L 85.686 241.200 85.901 237.000 C 86.018 234.690,86.026 232.800,85.918 232.800 C 85.809 232.800,85.611 234.734,85.477 237.097 M170.800 236.378 C 169.370 237.840,167.750 239.355,167.200 239.745 C 166.319 240.369,166.348 240.367,167.442 239.727 C 169.268 238.659,171.906 236.385,173.044 234.900 C 174.632 232.829,173.619 233.496,170.800 236.378 M33.970 237.800 C 33.844 239.560,33.819 241.227,33.914 241.504 C 34.052 241.901,38.266 241.986,53.944 241.904 L 73.800 241.800 73.878 240.600 C 73.952 239.482,73.937 239.469,73.660 240.400 L 73.364 241.400 53.898 241.504 L 34.431 241.608 34.316 238.104 L 34.200 234.600 33.970 237.800 M368.939 235.600 C 369.022 235.930,369.209 236.580,369.354 237.044 C 369.656 238.009,369.225 238.436,367.200 239.180 C 365.060 239.966,363.200 240.818,363.200 241.013 C 363.200 241.205,366.630 239.902,368.700 238.923 C 370.148 238.239,370.224 237.932,369.376 236.200 C 369.053 235.540,368.856 235.270,368.939 235.600 M355.612 236.000 C 355.612 236.330,355.787 236.870,356.000 237.200 C 356.345 237.733,356.388 237.733,356.388 237.200 C 356.388 236.870,356.213 236.330,356.000 236.000 C 355.655 235.467,355.612 235.467,355.612 236.000 M141.600 237.400 C 142.117 237.950,142.680 238.400,142.852 238.400 C 143.023 238.400,142.714 237.950,142.164 237.400 C 141.614 236.850,141.050 236.400,140.912 236.400 C 140.774 236.400,141.083 236.850,141.600 237.400 M346.400 239.039 C 342.709 241.674,337.692 242.254,334.031 240.468 C 333.057 239.994,332.195 239.671,332.115 239.751 C 332.035 239.832,332.831 240.310,333.885 240.813 C 338.109 242.833,343.260 242.050,347.554 238.736 C 348.984 237.633,348.013 237.887,346.400 239.039 M143.600 238.946 C 143.600 239.295,145.900 240.799,147.377 241.416 C 149.270 242.207,149.208 241.825,147.300 240.948 C 146.475 240.568,145.305 239.918,144.700 239.502 C 144.095 239.086,143.600 238.836,143.600 238.946 M94.200 240.010 C 93.666 240.247,93.998 240.286,95.200 240.127 C 96.190 239.996,97.075 239.824,97.167 239.744 C 97.514 239.443,94.964 239.672,94.200 240.010 M204.950 240.060 C 206.069 240.710,210.067 242.066,210.269 241.864 C 210.366 241.768,209.439 241.372,208.210 240.986 C 206.980 240.599,205.880 240.129,205.764 239.941 C 205.648 239.754,205.248 239.605,204.876 239.612 C 204.284 239.623,204.293 239.678,204.950 240.060 M238.800 240.000 C 238.036 240.494,238.858 240.494,240.400 240.000 L 241.400 239.680 240.400 239.646 C 239.850 239.627,239.130 239.787,238.800 240.000 M269.000 240.010 C 268.466 240.247,268.798 240.286,270.000 240.127 C 270.990 239.996,271.875 239.824,271.967 239.744 C 272.314 239.443,269.764 239.672,269.000 240.010 M308.000 240.012 C 307.581 240.291,307.942 240.333,309.200 240.150 C 311.441 239.825,311.760 239.598,309.967 239.606 C 309.215 239.609,308.330 239.792,308.000 240.012 M89.800 240.820 C 89.261 241.065,89.654 241.105,91.000 240.941 C 92.100 240.807,93.075 240.631,93.167 240.549 C 93.517 240.236,90.561 240.474,89.800 240.820 M235.600 240.800 C 234.836 241.294,235.658 241.294,237.200 240.800 L 238.200 240.480 237.200 240.446 C 236.650 240.427,235.930 240.587,235.600 240.800 M264.800 240.812 C 264.381 241.091,264.742 241.133,266.000 240.950 C 268.241 240.625,268.560 240.398,266.767 240.406 C 266.015 240.409,265.130 240.592,264.800 240.812 M303.800 240.810 C 303.266 241.047,303.598 241.086,304.800 240.927 C 305.790 240.796,306.675 240.624,306.767 240.544 C 307.114 240.243,304.564 240.472,303.800 240.810 M231.800 241.610 C 231.266 241.847,231.598 241.886,232.800 241.727 C 233.790 241.596,234.675 241.424,234.767 241.344 C 235.114 241.043,232.564 241.272,231.800 241.610 M260.615 241.576 C 260.476 241.801,260.991 241.859,261.891 241.720 C 263.900 241.410,264.061 241.200,262.290 241.200 C 261.497 241.200,260.743 241.369,260.615 241.576 M160.000 242.400 C 159.236 242.894,160.058 242.894,161.600 242.400 L 162.600 242.080 161.600 242.046 C 161.050 242.027,160.330 242.187,160.000 242.400 M212.000 242.400 C 212.550 242.576,213.360 242.726,213.800 242.732 L 214.600 242.744 213.800 242.400 C 213.360 242.211,212.550 242.062,212.000 242.068 L 211.000 242.080 212.000 242.400 M226.200 242.414 C 225.678 242.648,226.163 242.688,227.600 242.532 C 228.810 242.400,229.875 242.226,229.967 242.146 C 230.321 241.836,226.957 242.075,226.200 242.414 M154.100 243.091 C 154.925 243.178,156.275 243.178,157.100 243.091 C 157.925 243.005,157.250 242.934,155.600 242.934 C 153.950 242.934,153.275 243.005,154.100 243.091 M217.315 243.096 C 218.588 243.176,220.568 243.175,221.715 243.094 C 222.862 243.014,221.820 242.949,219.400 242.950 C 216.980 242.951,216.042 243.016,217.315 243.096 " stroke="none" fill="#a8d8f8" fill-rule="evenodd"></path><path id="path4" d="M98.400 157.218 C 97.941 157.528,98.082 157.597,99.000 157.511 C 100.161 157.404,100.208 157.464,100.437 159.400 L 100.674 161.400 100.737 159.343 C 100.784 157.795,100.643 157.225,100.167 157.043 C 99.323 156.719,99.106 156.740,98.400 157.218 M366.615 157.177 C 366.455 157.435,366.712 157.560,367.277 157.499 C 368.179 157.402,368.205 157.499,368.428 161.800 L 368.656 166.200 368.628 161.600 C 368.601 157.204,368.562 156.995,367.738 156.877 C 367.264 156.810,366.758 156.944,366.615 157.177 M94.190 158.016 C 94.021 158.289,94.323 158.338,95.066 158.160 C 96.599 157.792,96.744 157.600,95.490 157.600 C 94.917 157.600,94.332 157.787,94.190 158.016 M362.190 158.016 C 362.021 158.289,362.323 158.338,363.066 158.160 C 364.599 157.792,364.744 157.600,363.490 157.600 C 362.917 157.600,362.332 157.787,362.190 158.016 M89.800 158.800 C 89.508 159.273,89.899 159.273,91.000 158.800 C 91.771 158.469,91.769 158.455,90.924 158.428 C 90.442 158.413,89.936 158.580,89.800 158.800 M85.466 159.702 C 84.857 160.148,84.792 160.930,84.900 166.602 L 85.022 173.000 85.111 166.511 L 85.200 160.023 86.500 159.648 C 87.369 159.397,87.527 159.260,86.976 159.236 C 86.524 159.216,85.844 159.426,85.466 159.702 M352.840 162.233 C 352.861 163.535,353.023 165.590,353.200 166.800 C 353.418 168.299,353.453 167.598,353.308 164.600 C 353.081 159.880,352.774 158.334,352.840 162.233 M312.400 161.754 C 312.400 161.839,312.895 162.227,313.500 162.616 L 314.600 163.324 313.838 162.462 C 313.164 161.699,312.400 161.323,312.400 161.754 M300.975 163.700 L 299.800 165.000 301.100 163.825 C 301.815 163.179,302.400 162.594,302.400 162.525 C 302.400 162.216,302.070 162.488,300.975 163.700 M315.019 164.837 C 315.487 165.742,315.624 166.913,315.529 169.200 C 315.458 170.919,315.535 172.242,315.700 172.140 C 316.675 171.533,315.634 163.600,314.579 163.600 C 314.469 163.600,314.667 164.157,315.019 164.837 M100.170 172.400 C 100.170 177.130,100.228 179.065,100.298 176.700 C 100.369 174.335,100.369 170.465,100.298 168.100 C 100.228 165.735,100.170 167.670,100.170 172.400 M224.100 165.094 C 225.145 165.176,226.855 165.176,227.900 165.094 C 228.945 165.012,228.090 164.944,226.000 164.944 C 223.910 164.944,223.055 165.012,224.100 165.094 M219.905 165.483 C 220.402 165.579,221.122 165.575,221.505 165.475 C 221.887 165.375,221.480 165.296,220.600 165.301 C 219.720 165.305,219.407 165.387,219.905 165.483 M230.905 165.487 C 231.514 165.579,232.414 165.577,232.905 165.482 C 233.397 165.387,232.900 165.311,231.800 165.314 C 230.700 165.317,230.297 165.395,230.905 165.487 M216.400 166.000 C 215.596 166.257,215.557 166.323,216.200 166.332 C 216.640 166.338,217.360 166.189,217.800 166.000 C 218.819 165.562,217.768 165.562,216.400 166.000 M235.400 165.981 C 236.168 166.329,238.310 166.556,237.967 166.253 C 237.875 166.172,237.080 165.996,236.200 165.862 C 235.085 165.693,234.842 165.729,235.400 165.981 M44.128 166.300 C 49.808 166.362,58.988 166.362,64.528 166.300 C 70.068 166.237,65.420 166.186,54.200 166.186 C 42.980 166.186,38.448 166.237,44.128 166.300 M74.864 167.800 C 74.823 168.680,74.696 169.850,74.583 170.400 L 74.377 171.400 74.808 170.414 C 75.044 169.872,75.171 168.702,75.089 167.814 L 74.940 166.200 74.864 167.800 M33.351 171.200 C 33.351 173.730,33.416 174.765,33.496 173.500 C 33.575 172.235,33.575 170.165,33.496 168.900 C 33.416 167.635,33.351 168.670,33.351 171.200 M240.800 167.203 C 243.321 168.046,244.488 168.354,244.247 168.114 C 243.857 167.724,241.090 166.808,240.400 166.840 C 240.070 166.856,240.250 167.019,240.800 167.203 M210.224 168.213 C 209.225 168.968,209.595 168.963,211.054 168.202 C 211.684 167.874,211.930 167.610,211.600 167.615 C 211.270 167.621,210.651 167.890,210.224 168.213 M368.172 178.000 C 368.172 183.170,368.229 185.285,368.299 182.700 C 368.368 180.115,368.368 175.885,368.299 173.300 C 368.229 170.715,368.172 172.830,368.172 178.000 M298.101 170.600 C 298.105 171.480,298.187 171.793,298.283 171.295 C 298.379 170.798,298.375 170.078,298.275 169.695 C 298.175 169.313,298.096 169.720,298.101 170.600 M353.751 176.000 C 353.751 178.530,353.816 179.565,353.896 178.300 C 353.975 177.035,353.975 174.965,353.896 173.700 C 353.816 172.435,353.751 173.470,353.751 176.000 M202.175 173.700 L 201.000 175.000 202.300 173.825 C 203.512 172.730,203.784 172.400,203.475 172.400 C 203.406 172.400,202.821 172.985,202.175 173.700 M298.420 173.006 C 298.359 174.249,301.475 178.346,302.514 178.387 C 302.687 178.394,302.211 177.858,301.456 177.196 C 300.702 176.534,299.715 175.229,299.262 174.296 C 298.810 173.363,298.431 172.783,298.420 173.006 M314.311 174.026 C 313.940 174.672,313.780 175.200,313.954 175.200 C 314.283 175.200,315.324 173.191,315.107 172.974 C 315.040 172.907,314.682 173.380,314.311 174.026 M74.064 176.067 C 74.029 176.654,73.884 177.464,73.741 177.867 C 73.543 178.429,73.596 178.495,73.970 178.151 C 74.244 177.899,74.386 177.109,74.293 176.351 C 74.159 175.253,74.116 175.200,74.064 176.067 M85.348 179.200 C 85.348 181.510,85.414 182.455,85.495 181.300 C 85.576 180.145,85.576 178.255,85.495 177.100 C 85.414 175.945,85.348 176.890,85.348 179.200 M33.744 181.200 C 33.744 183.290,33.812 184.145,33.894 183.100 C 33.976 182.055,33.976 180.345,33.894 179.300 C 33.812 178.255,33.744 179.110,33.744 181.200 M49.021 183.821 C 48.862 186.815,48.818 189.352,48.924 189.457 C 49.029 189.563,49.247 187.200,49.407 184.207 C 49.567 181.214,49.611 178.677,49.504 178.570 C 49.397 178.463,49.179 180.826,49.021 183.821 M220.313 179.895 C 221.476 179.976,223.276 179.976,224.313 179.893 C 225.351 179.811,224.400 179.745,222.200 179.746 C 220.000 179.747,219.151 179.814,220.313 179.895 M354.109 182.800 C 354.109 183.790,354.187 184.195,354.282 183.700 C 354.378 183.205,354.378 182.395,354.282 181.900 C 354.187 181.405,354.109 181.810,354.109 182.800 M233.958 182.437 C 234.925 182.866,235.788 183.145,235.875 183.058 C 236.048 182.886,232.965 181.582,232.492 181.628 C 232.331 181.644,232.991 182.008,233.958 182.437 M99.740 187.200 C 99.740 189.070,99.809 189.835,99.893 188.900 C 99.977 187.965,99.977 186.435,99.893 185.500 C 99.809 184.565,99.740 185.330,99.740 187.200 M239.424 184.987 C 240.318 185.664,241.055 185.758,241.377 185.237 C 241.500 185.038,241.261 184.964,240.846 185.072 C 240.430 185.181,239.969 185.074,239.822 184.835 C 239.674 184.596,239.349 184.400,239.100 184.400 C 238.851 184.400,238.996 184.664,239.424 184.987 M159.100 185.489 C 159.815 185.578,160.985 185.578,161.700 185.489 C 162.415 185.401,161.830 185.328,160.400 185.328 C 158.970 185.328,158.385 185.401,159.100 185.489 M154.252 185.916 C 154.144 186.090,154.673 186.161,155.428 186.073 C 156.183 185.985,156.800 185.842,156.800 185.756 C 156.800 185.455,154.445 185.603,154.252 185.916 M164.033 185.743 C 164.125 185.822,164.920 185.997,165.800 186.132 C 166.890 186.299,167.209 186.255,166.800 185.995 C 166.253 185.646,163.645 185.409,164.033 185.743 M118.208 188.300 C 117.003 189.565,116.013 190.737,116.008 190.905 C 116.004 191.072,116.855 190.239,117.900 189.052 C 118.945 187.866,120.160 186.706,120.600 186.475 C 121.040 186.243,121.175 186.042,120.900 186.027 C 120.624 186.012,119.413 187.035,118.208 188.300 M313.161 186.270 L 314.121 186.472 313.913 192.336 C 313.763 196.566,313.804 197.531,314.059 195.800 C 314.774 190.944,314.353 186.210,313.200 186.134 C 312.204 186.069,312.204 186.070,313.161 186.270 M267.800 186.819 C 267.242 187.071,267.485 187.107,268.600 186.938 C 269.480 186.804,270.275 186.628,270.367 186.547 C 270.710 186.244,268.568 186.471,267.800 186.819 M289.600 186.795 C 289.191 187.055,289.510 187.099,290.600 186.932 C 292.577 186.629,292.914 186.398,291.367 186.406 C 290.725 186.409,289.930 186.584,289.600 186.795 M308.800 186.795 C 308.391 187.055,308.710 187.099,309.800 186.932 C 311.777 186.629,312.114 186.398,310.567 186.406 C 309.925 186.409,309.130 186.584,308.800 186.795 M344.715 186.728 C 344.338 186.878,345.816 187.000,348.000 187.000 C 350.184 187.000,351.662 186.878,351.285 186.728 C 350.908 186.579,349.430 186.456,348.000 186.456 C 346.570 186.456,345.092 186.579,344.715 186.728 M34.170 195.800 C 34.171 200.640,34.229 202.565,34.299 200.078 C 34.369 197.591,34.369 193.631,34.298 191.278 C 34.228 188.925,34.170 190.960,34.170 195.800 M264.000 187.595 C 263.591 187.855,263.910 187.899,265.000 187.732 C 266.977 187.429,267.314 187.198,265.767 187.206 C 265.125 187.209,264.330 187.384,264.000 187.595 M304.600 187.610 C 304.066 187.847,304.398 187.886,305.600 187.727 C 306.590 187.596,307.475 187.424,307.567 187.344 C 307.914 187.043,305.364 187.272,304.600 187.610 M260.400 188.418 C 259.962 188.715,260.124 188.752,261.000 188.556 C 262.471 188.227,262.790 187.998,261.767 188.006 C 261.345 188.009,260.730 188.195,260.400 188.418 M284.811 189.020 C 282.984 190.309,283.613 190.292,285.514 189.000 C 286.323 188.450,286.809 188.009,286.593 188.020 C 286.377 188.030,285.575 188.480,284.811 189.020 M300.400 188.406 C 299.978 188.682,300.215 188.723,301.200 188.542 C 302.925 188.225,303.251 187.998,301.967 188.006 C 301.435 188.009,300.730 188.189,300.400 188.406 M147.429 189.409 C 147.005 189.729,146.735 190.068,146.829 190.161 C 146.923 190.255,147.425 189.987,147.944 189.566 C 149.038 188.679,148.579 188.539,147.429 189.409 M258.853 189.158 C 258.463 189.406,258.419 189.704,258.697 190.202 C 259.039 190.813,259.113 190.769,259.288 189.850 C 259.399 189.272,259.469 188.803,259.445 188.806 C 259.420 188.809,259.154 188.968,258.853 189.158 M298.961 189.358 C 298.843 189.665,298.808 190.610,298.883 191.458 C 299.010 192.887,299.034 192.846,299.210 190.900 C 299.404 188.756,299.341 188.367,298.961 189.358 M85.773 199.000 C 85.773 204.500,85.830 206.805,85.899 204.123 C 85.968 201.441,85.968 196.941,85.899 194.123 C 85.830 191.305,85.774 193.500,85.773 199.000 M367.746 193.000 C 367.747 195.200,367.814 196.049,367.895 194.887 C 367.976 193.724,367.976 191.924,367.893 190.887 C 367.811 189.849,367.745 190.800,367.746 193.000 M174.401 190.600 C 174.951 191.260,175.445 191.875,175.500 191.967 C 175.555 192.058,175.688 192.045,175.796 191.938 C 175.904 191.830,175.409 191.215,174.697 190.571 L 173.403 189.400 174.401 190.600 M272.875 191.400 C 272.886 191.840,273.032 192.740,273.200 193.400 L 273.505 194.600 273.525 193.400 C 273.535 192.740,273.389 191.840,273.200 191.400 L 272.856 190.600 272.875 191.400 M331.400 194.000 C 330.317 195.100,329.603 195.982,329.815 195.959 C 330.191 195.920,333.880 192.000,333.541 192.000 C 333.447 192.000,332.483 192.900,331.400 194.000 M113.375 193.700 L 112.200 195.000 113.500 193.825 C 114.712 192.730,114.984 192.400,114.675 192.400 C 114.606 192.400,114.021 192.985,113.375 193.700 M292.072 194.050 C 292.032 194.847,291.905 196.108,291.789 196.850 C 291.597 198.085,291.615 198.116,292.008 197.215 C 292.244 196.674,292.371 195.414,292.291 194.415 C 292.162 192.818,292.136 192.775,292.072 194.050 M48.514 195.000 C 48.517 196.100,48.595 196.503,48.687 195.895 C 48.779 195.286,48.777 194.386,48.682 193.895 C 48.587 193.403,48.511 193.900,48.514 195.000 M259.206 194.033 C 259.209 194.565,259.389 195.270,259.606 195.600 C 259.882 196.022,259.923 195.785,259.742 194.800 C 259.425 193.075,259.198 192.749,259.206 194.033 M99.290 202.178 L 99.200 209.357 100.600 208.000 C 101.370 207.254,102.000 206.555,102.000 206.447 C 102.000 206.339,101.464 206.763,100.810 207.390 L 99.620 208.531 99.500 201.765 L 99.379 195.000 99.290 202.178 M127.375 196.900 L 126.200 198.200 127.500 197.025 C 128.215 196.379,128.800 195.794,128.800 195.725 C 128.800 195.416,128.470 195.688,127.375 196.900 M188.249 197.015 C 188.112 197.373,188.018 198.056,188.041 198.533 C 188.067 199.081,188.203 198.886,188.410 198.003 C 188.760 196.516,188.665 195.933,188.249 197.015 M299.324 198.600 C 299.326 199.920,299.401 200.412,299.490 199.693 C 299.579 198.974,299.577 197.894,299.486 197.293 C 299.395 196.692,299.322 197.280,299.324 198.600 M108.818 198.534 L 107.437 200.200 109.118 198.619 C 110.043 197.749,110.800 196.984,110.800 196.919 C 110.800 196.459,109.994 197.116,108.818 198.534 M54.100 197.499 C 57.125 197.567,62.075 197.567,65.100 197.499 C 68.125 197.431,65.650 197.375,59.600 197.375 C 53.550 197.375,51.075 197.431,54.100 197.499 M202.946 202.600 C 202.947 204.800,203.014 205.649,203.095 204.487 C 203.176 203.324,203.176 201.524,203.093 200.487 C 203.011 199.449,202.945 200.400,202.946 202.600 M157.300 199.876 C 157.685 199.976,158.315 199.976,158.700 199.876 C 159.085 199.775,158.770 199.693,158.000 199.693 C 157.230 199.693,156.915 199.775,157.300 199.876 M367.380 213.600 C 367.380 221.410,367.434 224.605,367.499 220.700 C 367.565 216.795,367.565 210.405,367.499 206.500 C 367.434 202.595,367.380 205.790,367.380 213.600 M161.090 200.388 C 161.799 200.557,162.834 200.993,163.390 201.357 C 163.945 201.721,164.400 201.922,164.400 201.803 C 164.400 201.314,161.726 200.006,160.800 200.042 C 159.941 200.076,159.982 200.125,161.090 200.388 M260.047 201.233 C 260.073 201.985,260.241 203.140,260.420 203.800 C 260.635 204.589,260.670 204.178,260.523 202.600 C 260.277 199.955,259.973 199.081,260.047 201.233 M344.112 200.295 C 345.164 200.377,346.784 200.376,347.712 200.292 C 348.640 200.208,347.780 200.141,345.800 200.142 C 343.820 200.143,343.060 200.212,344.112 200.295 M152.941 200.797 C 152.468 200.988,151.970 201.324,151.834 201.545 C 151.698 201.765,152.130 201.675,152.793 201.343 C 153.457 201.012,154.000 200.665,154.000 200.571 C 154.000 200.366,154.020 200.362,152.941 200.797 M340.600 200.798 C 340.160 200.989,339.260 201.623,338.600 202.206 L 337.400 203.266 338.786 202.333 C 339.549 201.820,340.629 201.190,341.186 200.932 C 342.350 200.396,341.811 200.272,340.600 200.798 M351.700 201.076 C 352.085 201.176,352.715 201.176,353.100 201.076 C 353.485 200.975,353.170 200.893,352.400 200.893 C 351.630 200.893,351.315 200.975,351.700 201.076 M104.012 203.745 L 101.824 206.200 104.312 203.813 C 105.680 202.499,106.800 201.374,106.800 201.313 C 106.800 200.846,105.884 201.645,104.012 203.745 M219.680 201.680 C 219.416 201.944,219.228 202.979,219.263 203.980 L 219.326 205.800 219.563 203.800 L 219.800 201.800 233.062 201.800 C 240.356 201.800,246.240 201.665,246.138 201.500 C 245.807 200.964,220.222 201.138,219.680 201.680 M299.751 205.600 C 299.751 208.130,299.816 209.165,299.896 207.900 C 299.975 206.635,299.975 204.565,299.896 203.300 C 299.816 202.035,299.751 203.070,299.751 205.600 M119.787 204.100 L 117.400 206.600 119.900 204.213 C 122.222 201.995,122.583 201.600,122.287 201.600 C 122.226 201.600,121.101 202.725,119.787 204.100 M150.017 203.177 C 149.043 204.544,147.872 207.205,148.130 207.464 C 148.228 207.561,148.514 207.047,148.767 206.320 C 149.020 205.594,149.674 204.325,150.219 203.500 C 151.390 201.730,151.229 201.473,150.017 203.177 M181.101 205.000 C 181.214 206.540,181.372 207.875,181.453 207.967 C 181.747 208.300,181.535 203.778,181.220 203.000 C 181.035 202.542,180.984 203.398,181.101 205.000 M187.359 208.000 C 187.359 211.190,187.421 212.495,187.497 210.900 C 187.573 209.305,187.573 206.695,187.497 205.100 C 187.421 203.505,187.359 204.810,187.359 208.000 M69.714 204.600 C 69.717 205.700,69.795 206.103,69.887 205.495 C 69.979 204.886,69.977 203.986,69.882 203.495 C 69.787 203.003,69.711 203.500,69.714 204.600 M313.101 209.100 C 312.979 212.345,313.002 217.160,313.152 219.800 C 313.370 223.638,313.432 222.455,313.463 213.900 C 313.485 208.015,313.462 203.200,313.413 203.200 C 313.363 203.200,313.223 205.855,313.101 209.100 M286.000 204.421 C 285.099 204.624,285.597 204.659,287.400 204.519 C 288.940 204.399,290.275 204.234,290.367 204.151 C 290.652 203.892,287.471 204.089,286.000 204.421 M167.139 206.387 C 167.502 207.480,167.851 208.147,167.914 207.869 C 168.027 207.366,166.932 204.400,166.633 204.400 C 166.547 204.400,166.775 205.294,167.139 206.387 M246.076 208.200 C 246.030 209.740,245.911 211.990,245.810 213.200 L 245.626 215.400 246.027 213.200 C 246.247 211.990,246.366 209.740,246.293 208.200 L 246.159 205.400 246.076 208.200 M34.544 210.400 C 34.544 212.490,34.612 213.345,34.694 212.300 C 34.776 211.255,34.776 209.545,34.694 208.500 C 34.612 207.455,34.544 208.310,34.544 210.400 M114.975 208.500 L 113.800 209.800 115.100 208.625 C 116.312 207.530,116.584 207.200,116.275 207.200 C 116.206 207.200,115.621 207.785,114.975 208.500 M335.293 208.800 C 335.293 209.570,335.375 209.885,335.476 209.500 C 335.576 209.115,335.576 208.485,335.476 208.100 C 335.375 207.715,335.293 208.030,335.293 208.800 M274.645 208.994 L 273.491 209.987 273.913 214.893 L 274.336 219.800 274.154 215.147 C 273.977 210.587,273.994 210.469,275.022 209.247 C 276.289 207.742,276.184 207.671,274.645 208.994 M147.385 210.585 C 147.230 211.823,147.193 212.927,147.303 213.037 C 147.413 213.147,147.630 212.223,147.785 210.985 C 147.939 209.746,147.976 208.643,147.866 208.533 C 147.756 208.423,147.539 209.346,147.385 210.585 M203.228 209.833 C 203.244 210.695,203.409 211.760,203.596 212.200 C 203.808 212.698,203.851 212.169,203.712 210.800 C 203.444 208.165,203.189 207.657,203.228 209.833 M86.153 213.800 C 86.153 216.440,86.218 217.468,86.297 216.084 C 86.375 214.701,86.374 212.541,86.295 211.284 C 86.216 210.028,86.152 211.160,86.153 213.800 M48.101 211.000 C 48.105 211.880,48.187 212.193,48.283 211.695 C 48.379 211.198,48.375 210.478,48.275 210.095 C 48.175 209.713,48.096 210.120,48.101 211.000 M218.467 211.020 C 218.363 213.526,218.577 213.600,225.872 213.600 L 232.383 213.600 232.500 221.700 L 232.618 229.800 232.709 221.500 L 232.800 213.200 226.300 213.194 C 218.955 213.187,218.919 213.177,218.697 210.995 L 218.534 209.400 218.467 211.020 M322.649 210.215 C 322.512 210.573,322.418 211.256,322.441 211.733 C 322.467 212.281,322.603 212.086,322.810 211.203 C 323.160 209.716,323.065 209.133,322.649 210.215 M134.901 211.800 C 134.905 212.680,134.987 212.993,135.083 212.495 C 135.179 211.998,135.175 211.278,135.075 210.895 C 134.975 210.513,134.896 210.920,134.901 211.800 M168.554 215.200 C 168.554 217.950,168.618 219.075,168.696 217.700 C 168.774 216.325,168.774 214.075,168.696 212.700 C 168.618 211.325,168.554 212.450,168.554 215.200 M334.940 213.600 C 334.940 215.470,335.009 216.235,335.093 215.300 C 335.177 214.365,335.177 212.835,335.093 211.900 C 335.009 210.965,334.940 211.730,334.940 213.600 M181.331 214.200 C 181.333 215.740,181.405 216.321,181.492 215.491 C 181.579 214.661,181.577 213.401,181.489 212.691 C 181.400 211.981,181.329 212.660,181.331 214.200 M260.944 215.200 C 260.944 217.290,261.012 218.145,261.094 217.100 C 261.176 216.055,261.176 214.345,261.094 213.300 C 261.012 212.255,260.944 213.110,260.944 215.200 M300.101 215.400 C 300.105 216.280,300.187 216.593,300.283 216.095 C 300.379 215.598,300.375 214.878,300.275 214.495 C 300.175 214.113,300.096 214.520,300.101 215.400 M48.324 221.200 C 48.425 225.050,48.574 228.275,48.654 228.367 C 48.916 228.665,48.729 218.660,48.431 216.400 C 48.271 215.190,48.223 217.350,48.324 221.200 M99.277 218.500 L 99.353 222.600 99.577 218.827 L 99.800 215.053 101.934 218.227 C 103.108 219.972,104.008 221.202,103.934 220.959 C 103.688 220.150,99.804 214.410,99.500 214.405 C 99.335 214.402,99.234 216.245,99.277 218.500 M321.850 215.650 C 321.537 217.215,321.593 221.893,321.940 223.124 C 322.083 223.632,322.200 221.877,322.200 219.224 C 322.200 213.874,322.202 213.891,321.850 215.650 M115.604 215.069 C 115.607 215.251,116.462 216.311,117.504 217.424 C 118.547 218.538,119.028 218.988,118.573 218.424 C 118.118 217.861,117.263 216.801,116.673 216.069 C 116.083 215.337,115.602 214.887,115.604 215.069 M147.293 216.400 C 147.295 218.165,147.891 220.788,147.930 219.200 C 147.943 218.650,147.805 217.480,147.623 216.600 L 147.292 215.000 147.293 216.400 M34.520 218.400 C 34.520 219.610,34.595 220.105,34.687 219.500 C 34.778 218.895,34.778 217.905,34.687 217.300 C 34.595 216.695,34.520 217.190,34.520 218.400 M188.006 217.633 C 188.009 218.165,188.189 218.870,188.406 219.200 C 188.682 219.622,188.723 219.385,188.542 218.400 C 188.225 216.675,187.998 216.349,188.006 217.633 M134.114 219.000 C 134.117 220.100,134.195 220.503,134.287 219.895 C 134.379 219.286,134.377 218.386,134.282 217.895 C 134.187 217.403,134.111 217.900,134.114 219.000 M335.293 218.800 C 335.293 219.570,335.375 219.885,335.476 219.500 C 335.576 219.115,335.576 218.485,335.476 218.100 C 335.375 217.715,335.293 218.030,335.293 218.800 M85.753 223.400 C 85.753 226.040,85.818 227.068,85.897 225.684 C 85.975 224.301,85.974 222.141,85.895 220.884 C 85.816 219.628,85.752 220.760,85.753 223.400 M120.434 221.047 C 120.965 221.733,121.480 222.223,121.579 222.135 C 121.677 222.047,121.243 221.486,120.613 220.888 L 119.469 219.800 120.434 221.047 M299.748 224.400 C 299.748 226.710,299.814 227.655,299.895 226.500 C 299.976 225.345,299.976 223.455,299.895 222.300 C 299.814 221.145,299.748 222.090,299.748 224.400 M34.153 226.200 C 34.153 228.840,34.218 229.868,34.297 228.484 C 34.375 227.101,34.374 224.941,34.295 223.684 C 34.216 222.428,34.152 223.560,34.153 226.200 M336.000 221.753 C 336.000 222.182,337.190 224.400,337.421 224.400 C 337.531 224.400,337.323 223.815,336.959 223.100 C 336.217 221.640,336.000 221.336,336.000 221.753 M149.555 225.100 C 149.980 225.925,150.928 227.140,151.663 227.799 L 153.000 228.998 151.745 227.599 C 151.054 226.830,150.195 225.615,149.835 224.900 C 149.474 224.185,149.090 223.600,148.982 223.600 C 148.873 223.600,149.131 224.275,149.555 225.100 M134.893 225.200 C 134.893 225.970,134.975 226.285,135.076 225.900 C 135.176 225.515,135.176 224.885,135.076 224.500 C 134.975 224.115,134.893 224.430,134.893 225.200 M208.400 224.233 C 208.400 224.377,208.940 225.109,209.600 225.861 C 210.260 226.613,210.800 227.110,210.800 226.967 C 210.800 226.823,210.260 226.091,209.600 225.339 C 208.940 224.587,208.400 224.090,208.400 224.233 M99.720 226.800 C 99.720 228.010,99.795 228.505,99.887 227.900 C 99.978 227.295,99.978 226.305,99.887 225.700 C 99.795 225.095,99.720 225.590,99.720 226.800 M338.571 225.897 C 339.215 226.609,339.830 227.104,339.938 226.996 C 340.045 226.888,340.058 226.755,339.967 226.700 C 339.875 226.645,339.260 226.151,338.600 225.601 L 337.400 224.603 338.571 225.897 M245.924 231.937 C 246.089 237.274,246.023 238.547,245.563 238.868 C 245.091 239.198,245.097 239.235,245.600 239.098 C 246.339 238.897,246.615 232.539,246.072 228.200 C 245.815 226.150,245.776 227.150,245.924 231.937 M260.271 229.202 C 260.126 230.411,260.031 232.390,260.059 233.600 C 260.097 235.181,260.207 234.674,260.448 231.800 C 260.815 227.437,260.694 225.673,260.271 229.202 M367.862 229.400 C 367.996 230.280,368.172 231.075,368.253 231.167 C 368.556 231.510,368.329 229.368,367.981 228.600 C 367.729 228.042,367.693 228.285,367.862 229.400 M274.702 232.800 C 274.817 235.330,274.976 237.475,275.055 237.567 C 275.321 237.872,275.134 232.228,274.812 230.200 C 274.607 228.915,274.568 229.843,274.702 232.800 M299.320 230.800 C 299.320 232.010,299.395 232.505,299.487 231.900 C 299.578 231.295,299.578 230.305,299.487 229.700 C 299.395 229.095,299.320 229.590,299.320 230.800 M48.800 230.100 C 48.800 230.265,54.695 230.361,61.900 230.314 C 74.946 230.228,73.471 230.096,57.300 229.902 C 52.624 229.846,48.799 229.935,48.800 230.100 M313.905 234.291 C 314.118 239.168,314.116 239.183,313.160 239.566 C 312.611 239.785,312.465 239.960,312.820 239.975 C 314.380 240.038,314.850 236.652,314.010 231.400 C 313.809 230.140,313.769 231.211,313.905 234.291 M136.405 230.262 C 136.395 231.136,138.202 234.116,139.737 235.757 L 141.274 237.400 139.873 235.670 C 139.103 234.719,138.009 233.009,137.442 231.870 C 136.874 230.732,136.408 230.008,136.405 230.262 M100.151 234.800 C 100.151 237.330,100.216 238.365,100.296 237.100 C 100.375 235.835,100.375 233.765,100.296 232.500 C 100.216 231.235,100.151 232.270,100.151 234.800 M129.270 231.578 C 129.781 232.226,130.349 232.766,130.530 232.778 C 130.712 232.790,130.442 232.270,129.930 231.622 C 129.419 230.974,128.851 230.434,128.670 230.422 C 128.488 230.410,128.758 230.930,129.270 231.578 M217.800 230.800 C 218.240 230.989,218.960 231.138,219.400 231.132 C 220.043 231.123,220.004 231.057,219.200 230.800 C 217.832 230.362,216.781 230.362,217.800 230.800 M226.200 230.800 C 225.111 231.077,225.093 231.107,226.000 231.125 C 226.550 231.135,227.360 230.989,227.800 230.800 C 228.786 230.376,227.866 230.376,226.200 230.800 M85.320 232.800 C 85.320 234.010,85.395 234.505,85.487 233.900 C 85.578 233.295,85.578 232.305,85.487 231.700 C 85.395 231.095,85.320 231.590,85.320 232.800 M33.720 234.000 C 33.720 235.210,33.795 235.705,33.887 235.100 C 33.978 234.495,33.978 233.505,33.887 232.900 C 33.795 232.295,33.720 232.790,33.720 234.000 M354.314 233.192 C 354.412 233.862,354.659 234.513,354.862 234.638 C 355.078 234.772,355.121 234.395,354.964 233.734 C 354.587 232.135,354.099 231.729,354.314 233.192 M197.286 234.998 C 198.543 236.298,199.629 237.281,199.700 237.181 C 199.771 237.082,198.743 236.017,197.415 234.817 L 195.000 232.633 197.286 234.998 M74.859 234.200 C 74.820 234.860,74.696 235.850,74.583 236.400 L 74.377 237.400 74.808 236.414 C 75.044 235.872,75.168 234.882,75.083 234.214 L 74.928 233.000 74.859 234.200 M170.600 237.494 C 169.060 238.957,168.340 239.774,169.000 239.310 C 170.170 238.486,173.948 234.783,173.583 234.817 C 173.482 234.827,172.140 236.031,170.600 237.494 M350.575 236.500 L 349.400 237.800 350.700 236.625 C 351.912 235.530,352.184 235.200,351.875 235.200 C 351.806 235.200,351.221 235.785,350.575 236.500 M84.973 239.099 L 85.000 242.200 86.149 242.331 C 86.781 242.403,87.485 242.275,87.714 242.046 C 88.003 241.757,87.687 241.701,86.683 241.864 L 85.235 242.099 85.091 239.048 L 84.946 235.997 84.973 239.099 M298.973 239.099 C 299.002 242.422,299.604 243.127,301.488 242.044 C 302.030 241.733,301.845 241.690,300.718 241.867 L 299.235 242.099 299.091 239.048 L 298.946 235.997 298.973 239.099 M33.254 239.476 C 33.225 240.838,33.335 242.036,33.500 242.138 C 33.665 242.240,33.747 241.486,33.683 240.462 C 33.484 237.288,33.311 236.891,33.254 239.476 M274.223 239.433 C 273.574 239.907,273.554 240.000,274.100 240.000 C 274.459 240.000,274.871 239.808,275.016 239.573 C 275.440 238.887,275.061 238.820,274.223 239.433 M95.000 240.400 L 94.200 240.744 95.000 240.766 C 95.440 240.778,96.070 240.613,96.400 240.400 C 97.195 239.886,96.196 239.886,95.000 240.400 M117.785 241.500 C 118.402 242.435,118.983 243.200,119.076 243.200 C 119.364 243.200,117.833 240.766,117.232 240.269 C 116.920 240.011,117.168 240.565,117.785 241.500 M269.800 240.400 C 269.029 240.731,269.031 240.745,269.876 240.772 C 270.358 240.787,270.864 240.620,271.000 240.400 C 271.292 239.927,270.901 239.927,269.800 240.400 M309.000 240.400 C 308.229 240.731,308.231 240.745,309.076 240.772 C 309.558 240.787,310.064 240.620,310.200 240.400 C 310.492 239.927,310.101 239.927,309.000 240.400 M261.400 242.000 C 260.629 242.331,260.631 242.345,261.476 242.372 C 261.958 242.387,262.464 242.220,262.600 242.000 C 262.892 241.527,262.501 241.527,261.400 242.000 M336.190 241.984 C 336.332 242.213,336.917 242.400,337.490 242.400 C 338.744 242.400,338.599 242.208,337.066 241.840 C 336.323 241.662,336.021 241.711,336.190 241.984 M341.400 242.000 C 340.629 242.331,340.631 242.345,341.476 242.372 C 341.958 242.387,342.464 242.220,342.600 242.000 C 342.892 241.527,342.501 241.527,341.400 242.000 M227.600 242.800 L 226.600 243.120 227.676 243.160 C 228.268 243.182,228.864 243.020,229.000 242.800 C 229.281 242.345,229.020 242.345,227.600 242.800 M154.505 243.487 C 155.114 243.579,156.014 243.577,156.505 243.482 C 156.997 243.387,156.500 243.311,155.400 243.314 C 154.300 243.317,153.897 243.395,154.505 243.487 M217.700 243.491 C 218.525 243.578,219.875 243.578,220.700 243.491 C 221.525 243.405,220.850 243.334,219.200 243.334 C 217.550 243.334,216.875 243.405,217.700 243.491 " stroke="none" fill="#51b4f4" fill-rule="evenodd"></path></g></svg>